<svg height="512px" style="enable-background:new 0 0 512 512;" version="1.1" viewBox="0 0 512 512"
  width="512px" xmlSpace="preserve" xmlns="http://www.w3.org/2000/svg"
  xmlns:xlink="http://www.w3.org/1999/xlink"><g id="_x32_3-swift"><g><g><g><path d="M311.531,46.662c209.789,140.375,141.76,294.632,141.76,294.632s59.588,66.121,35.635,124.045      c0,0-24.723-40.463-65.76-40.463c-39.672,0-63.143,40.463-143.225,40.463c-178.114,0-262.545-146.357-262.545-146.357      c160.513,104.071,270.182,30.322,270.182,30.322c-72.473-41.207-226.19-238.561-226.19-238.561      C195.391,222.926,253.219,252.38,253.219,252.38C218.447,224.392,121.542,87.208,121.542,87.208      c77.545,77.128,231.684,184.673,231.684,184.673C397.426,153.034,311.531,46.662,311.531,46.662L311.531,46.662z       M311.531,46.662" style="fill:#FF5722;"/></g></g></g></g><g id="Layer_1"/>
</svg>