<?xml version="1.0" encoding="UTF-8"?><svg id="Layer_1" xmlns="http://www.w3.org/2000/svg" viewBox="0 0 800 600"><defs><style>.cls-1,.cls-2,.cls-3{font-size:16px;}.cls-1,.cls-2,.cls-4{fill:#f2f2f2;}.cls-1,.cls-5{font-family:SpaceMono-Regular, 'Space Mono';}.cls-2{font-family:SpaceGrotesk-Regular, 'Space Grotesk';}.cls-6{letter-spacing:-.02em;}.cls-3,.cls-5{fill:#fff;}.cls-3,.cls-7{font-family:SpaceMono-Italic, 'Space Mono';font-style:italic;}.cls-8{stroke-dasharray:0 0 4.56 2.28;}.cls-8,.cls-9,.cls-10,.cls-11{fill:none;stroke-miterlimit:10;}.cls-8,.cls-11{stroke:#f2f2f2;}.cls-5{font-size:10px;}.cls-9{stroke:#fff;stroke-width:2.06px;}.cls-10{stroke:#7c7cf7;}.cls-4,.cls-12{stroke-width:0px;}.cls-12,.cls-7{fill:#7c7cf7;}.cls-7{font-size:14px;}</style></defs><line class="cls-11" x1="408.63" y1="475.65" x2="428.53" y2="475.65"/><polygon class="cls-4" points="427.8 478.15 432.11 475.65 427.8 473.16 427.8 478.15"/><line class="cls-11" x1="462.2" y1="130.08" x2="476.27" y2="144.15"/><polygon class="cls-4" points="473.99 145.4 478.81 146.69 477.52 141.87 473.99 145.4"/><line class="cls-11" x1="462.2" y1="169.3" x2="476.27" y2="155.23"/><polygon class="cls-4" points="477.52 157.51 478.81 152.69 473.99 153.98 477.52 157.51"/><line class="cls-11" x1="496.16" y1="163.24" x2="522.62" y2="196.45"/><polygon class="cls-4" points="520.21 197.43 524.85 199.25 524.11 194.32 520.21 197.43"/><line class="cls-11" x1="496.79" y1="237.03" x2="522.44" y2="208.81"/><polygon class="cls-4" points="523.79 211.03 524.85 206.16 520.1 207.68 523.79 211.03"/><line class="cls-11" x1="546.14" y1="219.15" x2="597.15" y2="298.81"/><polygon class="cls-4" points="594.66 299.54 599.08 301.83 598.85 296.85 594.66 299.54"/><line class="cls-11" x1="547.29" y1="388.56" x2="596.97" y2="320.58"/><polygon class="cls-4" points="598.55 322.64 599.08 317.69 594.52 319.7 598.55 322.64"/><line class="cls-11" x1="408.63" y1="426.52" x2="428.53" y2="426.52"/><polygon class="cls-4" points="427.8 429.02 432.11 426.52 427.8 424.03 427.8 429.02"/><line class="cls-11" x1="408.63" y1="377.39" x2="428.53" y2="377.39"/><polygon class="cls-4" points="427.8 379.89 432.11 377.39 427.8 374.9 427.8 379.89"/><line class="cls-11" x1="408.63" y1="328.27" x2="428.53" y2="328.27"/><polygon class="cls-4" points="427.8 330.76 432.11 328.27 427.8 325.77 427.8 330.76"/><polyline class="cls-11" points="438.42 134.62 436.42 134.62 436.42 132.62"/><line class="cls-8" x1="436.42" y1="130.34" x2="436.42" y2="117.81"/><polyline class="cls-11" points="436.42 116.67 436.42 114.67 438.42 114.67"/><line class="cls-8" x1="440.7" y1="114.67" x2="453.23" y2="114.67"/><polyline class="cls-11" points="454.37 114.67 456.37 114.67 456.37 116.67"/><line class="cls-8" x1="456.37" y1="118.95" x2="456.37" y2="131.48"/><polyline class="cls-11" points="456.37 132.62 456.37 134.62 454.37 134.62"/><line class="cls-8" x1="452.09" y1="134.62" x2="439.56" y2="134.62"/><polyline class="cls-11" points="486.87 160.23 484.87 160.23 484.87 158.23"/><line class="cls-8" x1="484.87" y1="155.95" x2="484.87" y2="143.42"/><polyline class="cls-11" points="484.87 142.28 484.87 140.28 486.87 140.28"/><line class="cls-8" x1="489.15" y1="140.28" x2="501.68" y2="140.28"/><polyline class="cls-11" points="502.82 140.28 504.82 140.28 504.82 142.28"/><line class="cls-8" x1="504.82" y1="144.56" x2="504.82" y2="157.09"/><polyline class="cls-11" points="504.82 158.23 504.82 160.23 502.82 160.23"/><line class="cls-8" x1="500.54" y1="160.23" x2="488.01" y2="160.23"/><rect class="cls-11" x="675.01" y="234.38" width="19.95" height="149.55" transform="translate(994.14 -375.83) rotate(90)"/><polyline class="cls-11" points="535.15 212.75 533.15 212.75 533.15 210.75"/><line class="cls-8" x1="533.15" y1="208.47" x2="533.15" y2="195.93"/><polyline class="cls-11" points="533.15 194.8 533.15 192.8 535.15 192.8"/><line class="cls-8" x1="537.43" y1="192.8" x2="549.96" y2="192.8"/><polyline class="cls-11" points="551.1 192.8 553.1 192.8 553.1 194.8"/><line class="cls-8" x1="553.1" y1="197.07" x2="553.1" y2="209.61"/><polyline class="cls-11" points="553.1 210.75 553.1 212.75 551.1 212.75"/><line class="cls-8" x1="548.82" y1="212.75" x2="536.29" y2="212.75"/><line class="cls-11" x1="462.2" y1="229.47" x2="476.27" y2="243.54"/><polygon class="cls-4" points="473.99 244.78 478.81 246.07 477.52 241.26 473.99 244.78"/><line class="cls-11" x1="462.2" y1="268.69" x2="476.27" y2="254.62"/><polygon class="cls-4" points="477.52 256.9 478.81 252.08 473.99 253.37 477.52 256.9"/><polyline class="cls-11" points="486.87 259.62 484.87 259.62 484.87 257.62"/><line class="cls-8" x1="484.87" y1="255.34" x2="484.87" y2="242.81"/><polyline class="cls-11" points="484.87 241.67 484.87 239.67 486.87 239.67"/><line class="cls-8" x1="489.15" y1="239.67" x2="501.68" y2="239.67"/><polyline class="cls-11" points="502.82 239.67 504.82 239.67 504.82 241.67"/><line class="cls-8" x1="504.82" y1="243.94" x2="504.82" y2="256.48"/><polyline class="cls-11" points="504.82 257.62 504.82 259.62 502.82 259.62"/><line class="cls-8" x1="500.54" y1="259.62" x2="488.01" y2="259.62"/><polyline class="cls-11" points="438.42 183.94 436.42 183.94 436.42 181.94"/><line class="cls-8" x1="436.42" y1="179.66" x2="436.42" y2="167.12"/><polyline class="cls-11" points="436.42 165.98 436.42 163.98 438.42 163.98"/><line class="cls-8" x1="440.7" y1="163.98" x2="453.23" y2="163.98"/><polyline class="cls-11" points="454.37 163.98 456.37 163.98 456.37 165.98"/><line class="cls-8" x1="456.37" y1="168.26" x2="456.37" y2="180.8"/><polyline class="cls-11" points="456.37 181.94 456.37 183.94 454.37 183.94"/><line class="cls-8" x1="452.09" y1="183.94" x2="439.56" y2="183.94"/><polyline class="cls-11" points="438.42 233.25 436.42 233.25 436.42 231.25"/><line class="cls-8" x1="436.42" y1="228.98" x2="436.42" y2="216.44"/><polyline class="cls-11" points="436.42 215.3 436.42 213.3 438.42 213.3"/><line class="cls-8" x1="440.7" y1="213.3" x2="453.23" y2="213.3"/><polyline class="cls-11" points="454.37 213.3 456.37 213.3 456.37 215.3"/><line class="cls-8" x1="456.37" y1="217.58" x2="456.37" y2="230.11"/><polyline class="cls-11" points="456.37 231.25 456.37 233.25 454.37 233.25"/><line class="cls-8" x1="452.09" y1="233.25" x2="439.56" y2="233.25"/><polyline class="cls-11" points="438.42 282.57 436.42 282.57 436.42 280.57"/><line class="cls-8" x1="436.42" y1="278.29" x2="436.42" y2="265.76"/><polyline class="cls-11" points="436.42 264.62 436.42 262.62 438.42 262.62"/><line class="cls-8" x1="440.7" y1="262.62" x2="453.23" y2="262.62"/><polyline class="cls-11" points="454.37 262.62 456.37 262.62 456.37 264.62"/><line class="cls-8" x1="456.37" y1="266.9" x2="456.37" y2="279.43"/><polyline class="cls-11" points="456.37 280.57 456.37 282.57 454.37 282.57"/><line class="cls-8" x1="452.09" y1="282.57" x2="439.56" y2="282.57"/><line class="cls-11" x1="408.63" y1="272.36" x2="428.53" y2="272.36"/><polygon class="cls-4" points="427.8 274.85 432.11 272.36 427.8 269.87 427.8 274.85"/><line class="cls-11" x1="462.2" y1="333.38" x2="476.27" y2="347.44"/><polygon class="cls-4" points="473.99 348.69 478.81 349.98 477.52 345.16 473.99 348.69"/><line class="cls-11" x1="462.2" y1="372.59" x2="476.27" y2="358.52"/><polygon class="cls-4" points="477.52 360.8 478.81 355.99 473.99 357.28 477.52 360.8"/><line class="cls-11" x1="496.16" y1="366.54" x2="522.62" y2="399.74"/><polygon class="cls-4" points="520.21 400.72 524.85 402.55 524.11 397.62 520.21 400.72"/><line class="cls-11" x1="496.79" y1="440.32" x2="522.44" y2="412.11"/><polygon class="cls-4" points="523.79 414.33 524.85 409.45 520.1 410.97 523.79 414.33"/><line class="cls-11" x1="408.63" y1="223.23" x2="428.53" y2="223.23"/><polygon class="cls-4" points="427.8 225.72 432.11 223.23 427.8 220.74 427.8 225.72"/><line class="cls-11" x1="408.63" y1="174.1" x2="428.53" y2="174.1"/><polygon class="cls-4" points="427.8 176.59 432.11 174.1 427.8 171.61 427.8 176.59"/><line class="cls-11" x1="408.63" y1="124.97" x2="428.53" y2="124.97"/><polygon class="cls-4" points="427.8 127.47 432.11 124.97 427.8 122.48 427.8 127.47"/><polyline class="cls-11" points="438.42 337.91 436.42 337.91 436.42 335.91"/><line class="cls-8" x1="436.42" y1="333.63" x2="436.42" y2="321.1"/><polyline class="cls-11" points="436.42 319.96 436.42 317.96 438.42 317.96"/><line class="cls-8" x1="440.7" y1="317.96" x2="453.23" y2="317.96"/><polyline class="cls-11" points="454.37 317.96 456.37 317.96 456.37 319.96"/><line class="cls-8" x1="456.37" y1="322.24" x2="456.37" y2="334.77"/><polyline class="cls-11" points="456.37 335.91 456.37 337.91 454.37 337.91"/><line class="cls-8" x1="452.09" y1="337.91" x2="439.56" y2="337.91"/><polyline class="cls-11" points="486.87 363.52 484.87 363.52 484.87 361.52"/><line class="cls-8" x1="484.87" y1="359.25" x2="484.87" y2="346.71"/><polyline class="cls-11" points="484.87 345.57 484.87 343.57 486.87 343.57"/><line class="cls-8" x1="489.15" y1="343.57" x2="501.68" y2="343.57"/><polyline class="cls-11" points="502.82 343.57 504.82 343.57 504.82 345.57"/><line class="cls-8" x1="504.82" y1="347.85" x2="504.82" y2="360.38"/><polyline class="cls-11" points="504.82 361.52 504.82 363.52 502.82 363.52"/><line class="cls-8" x1="500.54" y1="363.52" x2="488.01" y2="363.52"/><polyline class="cls-11" points="535.15 416.89 533.15 416.89 533.15 414.89"/><line class="cls-8" x1="533.15" y1="412.61" x2="533.15" y2="400.08"/><polyline class="cls-11" points="533.15 398.94 533.15 396.94 535.15 396.94"/><line class="cls-8" x1="537.43" y1="396.94" x2="549.96" y2="396.94"/><polyline class="cls-11" points="551.1 396.94 553.1 396.94 553.1 398.94"/><line class="cls-8" x1="553.1" y1="401.22" x2="553.1" y2="413.75"/><polyline class="cls-11" points="553.1 414.89 553.1 416.89 551.1 416.89"/><line class="cls-8" x1="548.82" y1="416.89" x2="536.29" y2="416.89"/><line class="cls-11" x1="462.2" y1="432.76" x2="476.27" y2="446.83"/><polygon class="cls-4" points="473.99 448.08 478.81 449.37 477.52 444.55 473.99 448.08"/><line class="cls-11" x1="462.2" y1="471.98" x2="476.27" y2="457.91"/><polygon class="cls-4" points="477.52 460.19 478.81 455.37 473.99 456.67 477.52 460.19"/><polyline class="cls-11" points="486.87 462.91 484.87 462.91 484.87 460.91"/><line class="cls-8" x1="484.87" y1="458.63" x2="484.87" y2="446.1"/><polyline class="cls-11" points="484.87 444.96 484.87 442.96 486.87 442.96"/><line class="cls-8" x1="489.15" y1="442.96" x2="501.68" y2="442.96"/><polyline class="cls-11" points="502.82 442.96 504.82 442.96 504.82 444.96"/><line class="cls-8" x1="504.82" y1="447.24" x2="504.82" y2="459.77"/><polyline class="cls-11" points="504.82 460.91 504.82 462.91 502.82 462.91"/><line class="cls-8" x1="500.54" y1="462.91" x2="488.01" y2="462.91"/><polyline class="cls-11" points="438.42 387.23 436.42 387.23 436.42 385.23"/><line class="cls-8" x1="436.42" y1="382.95" x2="436.42" y2="370.42"/><polyline class="cls-11" points="436.42 369.28 436.42 367.28 438.42 367.28"/><line class="cls-8" x1="440.7" y1="367.28" x2="453.23" y2="367.28"/><polyline class="cls-11" points="454.37 367.28 456.37 367.28 456.37 369.28"/><line class="cls-8" x1="456.37" y1="371.56" x2="456.37" y2="384.09"/><polyline class="cls-11" points="456.37 385.23 456.37 387.23 454.37 387.23"/><line class="cls-8" x1="452.09" y1="387.23" x2="439.56" y2="387.23"/><polyline class="cls-11" points="438.42 436.55 436.42 436.55 436.42 434.55"/><line class="cls-8" x1="436.42" y1="432.27" x2="436.42" y2="419.73"/><polyline class="cls-11" points="436.42 418.59 436.42 416.59 438.42 416.59"/><line class="cls-8" x1="440.7" y1="416.59" x2="453.23" y2="416.59"/><polyline class="cls-11" points="454.37 416.59 456.37 416.59 456.37 418.59"/><line class="cls-8" x1="456.37" y1="420.87" x2="456.37" y2="433.41"/><polyline class="cls-11" points="456.37 434.55 456.37 436.55 454.37 436.55"/><line class="cls-8" x1="452.09" y1="436.55" x2="439.56" y2="436.55"/><polyline class="cls-11" points="438.42 485.87 436.42 485.87 436.42 483.87"/><line class="cls-8" x1="436.42" y1="481.59" x2="436.42" y2="469.05"/><polyline class="cls-11" points="436.42 467.91 436.42 465.91 438.42 465.91"/><line class="cls-8" x1="440.7" y1="465.91" x2="453.23" y2="465.91"/><polyline class="cls-11" points="454.37 465.91 456.37 465.91 456.37 467.91"/><line class="cls-8" x1="456.37" y1="470.19" x2="456.37" y2="482.73"/><polyline class="cls-11" points="456.37 483.87 456.37 485.87 454.37 485.87"/><line class="cls-8" x1="452.09" y1="485.87" x2="439.56" y2="485.87"/><text class="cls-1" transform="translate(466.72 66.6)"><tspan x="0" y="0">tree hashes</tspan></text><text class="cls-1" transform="translate(606.33 287.83)"><tspan x="0" y="0">root hash</tspan></text><text class="cls-2" transform="translate(623.82 315.35)"><tspan x="0" y="0">cidColle</tspan><tspan class="cls-6" x="61.26" y="0">c</tspan><tspan x="70.51" y="0">tion</tspan></text><path class="cls-11" d="m434.17,91.53s0-9.01,10.71-9.01c10.71,0,61.02,0,64.56,0s7.5-2.8,7.5-6.31h.24c0,3.5,3.96,6.31,7.5,6.31h64.56c10.71,0,10.71,9.01,10.71,9.01"/><text class="cls-5" transform="translate(62.12 107.04)"><tspan x="0" y="0">77sfc23pszkazsxg5w4q2hlnpaqjgjsq4sg3z4py3sa6gzryfpuq</tspan><tspan x="0" y="15">77spgchxylthv4gxajjbr6xzrxrdsywan3bampxq4d7sdjadm6ja</tspan><tspan x="0" y="30">77sprwdzerf4jyxvcmei2zqm3v6g2uj7dacuxy5qsudzlupmvxtq</tspan><tspan x="0" y="45">77ssxzzetjl5q23akdo6bnskvytd3by5layzfo7md2g6zdimbitq</tspan><tspan x="0" y="60">77swfoyskeay37xyeva4hnqbcppnzk4fbidq63rgcvyg2bf7mrja</tspan><tspan x="0" y="75">77tsjjayznqg7x3lxenl37ovsmgn7eflohzphnqulxcaqzoapklha</tspan><tspan x="0" y="90">77tthnjl45kc6mu6at7jidy4gnecbjpvv56pra3d4pjjic2nbdia</tspan><tspan x="0" y="105">77t2vxk522bvrk6apoka5szx4z6ishkqwse7g233vehcxcgns5za</tspan><tspan x="0" y="120">77uni5pv4v5uqi6hvfnw3qn3xmdvau5uf7irogmeerhc7tkg2pga</tspan><tspan x="0" y="135">77vkstmp7vuwrk577lczmb6f7bthjgowthsuvekkyzpzrspe4cda</tspan><tspan x="0" y="150">77vp4qw5ystjutgp62rkkwpgk5azed6v2jlecza6q4vvfq52nzha</tspan><tspan x="0" y="165">77vw3sk5vdbku3ihnlz56prctaepgtixa455uv3fkn7ldbesaiza</tspan><tspan x="0" y="180">77wbps7i6w4c65mzetip6ddicvdhbehlv4pqbulylwrouz6m7w6a</tspan><tspan x="0" y="195">77wt3qq54ozfq4okttokzuqvdpl2yxyeu2pprrs33wg3ubxavv6q</tspan><tspan x="0" y="210">77xpqkwwacxhpf24zsa74mepojejix6aq7anfc7pkk4kxsmt3weq</tspan><tspan x="0" y="225">77x4xo3e75xxp727awgnjm6zeibab7mwyz7zmgocfu3u7p64bpba</tspan><tspan x="0" y="240">77yh3fsvz5zux5dxj63cgt25oukxreizebnmqoij26qudsv5vtuq</tspan><tspan x="0" y="255">77ymzl65vtqvvmglwht3eju2fubegkoioexs4uv6fuafkbxopskq</tspan><tspan x="0" y="270">77y56hsagwclv2zjqzbkkhx6v6md4u5bsnvbr3de2fbahoqencra</tspan><tspan x="0" y="285">77zlqqxiqwdiagw2radpy7hmovbnvfildnvgrhkktvttcaofyl4lq</tspan><tspan x="0" y="300">77zt64i5cbksxwko4cgzujhacjpi3tc3crtvulaidh2jj24ijmdq</tspan><tspan x="0" y="315">77z3c7m3iyphvnxjtt4udhcndefcnzs76il4nemk26l7hm6iirjq</tspan><tspan x="0" y="330">772c4xujdiwx5psgwfx5dyi2jfip4ugzh6sv77teqoqqrp2ksyy4q</tspan><tspan x="0" y="345">772lsd75krvciemzjpmxcq5joehuaonchwvnrf2xtgjjmbq56keq</tspan><tspan x="0" y="360">772wghidfckvdllljjzswpiizw7h4pfpwxudiqcdjuysljfcxa5q</tspan><tspan x="0" y="375">77333v5l7vahorcpfqmrpidgr7tonfxzng3fr2qg2oz4xkwx2xoq</tspan><tspan x="0" y="390">774ebubybojiq3jfu4nqaxxof37pmin3mmgctrcneupmju45gogq</tspan><tspan x="0" y="405">...</tspan></text><rect class="cls-9" x="48.51" y="87.22" width="346.99" height="431.84"/><text class="cls-3" transform="translate(110.52 52.6)"><tspan x="0" y="0">collection hash sequence</tspan></text><text class="cls-7" transform="translate(73.53 553.6)"><tspan x="0" y="0">conventionally, metadata blob is first hash</tspan></text><line class="cls-10" x1="227.41" y1="60.09" x2="227.41" y2="75.54"/><polygon class="cls-12" points="223.92 74.52 227.41 80.56 230.9 74.52 223.92 74.52"/><polyline class="cls-10" points="53.98 104.09 31 104.09 31 547.09 67 547.09"/><polygon class="cls-12" points="52.96 100.6 59 104.09 52.96 107.58 52.96 100.6"/></svg>