<?xml version="1.0" encoding="UTF-8"?><svg id="Layer_1" xmlns="http://www.w3.org/2000/svg" viewBox="0 0 800 350"><defs><style>.cls-1{font-family:SpaceMono-Italic, 'Space Mono';font-style:italic;}.cls-1,.cls-2,.cls-3,.cls-4,.cls-5,.cls-6,.cls-7{fill:#f2f2f2;}.cls-1,.cls-2,.cls-3,.cls-4,.cls-5,.cls-7{font-size:16px;}.cls-1,.cls-2,.cls-3,.cls-4,.cls-5,.cls-7,.cls-8{isolation:isolate;}.cls-9{stroke-dasharray:0 0 0 0 0 0 2.01 2.01;}.cls-9,.cls-10,.cls-11,.cls-6,.cls-12,.cls-13,.cls-14{stroke:#f2f2f2;stroke-miterlimit:10;}.cls-9,.cls-10,.cls-11,.cls-12,.cls-13,.cls-14{fill:none;}.cls-2{letter-spacing:-.01em;}.cls-2,.cls-3,.cls-4,.cls-5,.cls-7{font-family:SpaceGrotesk-Regular, 'Space Grotesk';}.cls-10{stroke-dasharray:0 0 0 0 0 0 4.56 2.28;}.cls-4{letter-spacing:-.06em;}.cls-15{fill:#7c7cf7;font-family:SpaceMono-Bold, 'Space Mono';font-size:20px;font-weight:700;letter-spacing:.05em;}.cls-11{stroke-dasharray:0 0 0 0 0 0 3.99 1.99;}.cls-5{letter-spacing:0em;}.cls-12{stroke-width:2px;}.cls-7{letter-spacing:-.03em;}.cls-14{stroke-dasharray:0 0 0 0 0 0 1.97 1.97;}.cls-16{letter-spacing:-.03em;}</style></defs><line class="cls-6" x1="506.04" y1="123.19" x2="486.14" y2="123.19"/><polygon class="cls-6" points="486.87 120.7 482.55 123.19 486.87 125.69 486.87 120.7"/><line class="cls-6" x1="552.73" y1="144.91" x2="538.66" y2="130.84"/><polygon class="cls-6" points="540.94 129.59 536.12 128.3 537.41 133.12 540.94 129.59"/><line class="cls-6" x1="552.73" y1="150.91" x2="538.66" y2="164.98"/><polygon class="cls-6" points="537.41 162.7 536.12 167.52 540.94 166.23 537.41 162.7"/><line class="cls-6" x1="610.77" y1="197.47" x2="584.32" y2="164.27"/><polygon class="cls-6" points="586.72 163.29 582.08 161.46 582.82 166.39 586.72 163.29"/><line class="cls-6" x1="610.77" y1="204.38" x2="585.12" y2="232.6"/><polygon class="cls-6" points="583.77 230.38 582.71 235.25 587.46 233.73 583.77 230.38"/><line class="cls-6" x1="506.04" y1="172.32" x2="486.14" y2="172.32"/><polygon class="cls-6" points="486.87 169.83 482.55 172.32 486.87 174.82 486.87 169.83"/><line class="cls-6" x1="506.04" y1="221.45" x2="486.14" y2="221.45"/><polygon class="cls-6" points="486.87 218.96 482.55 221.45 486.87 223.94 486.87 218.96"/><line class="cls-6" x1="506.04" y1="270.58" x2="486.14" y2="270.58"/><polygon class="cls-6" points="486.87 268.09 482.55 270.58 486.87 273.07 486.87 268.09"/><polyline class="cls-13" points="512.34 132.84 510.34 132.84 510.34 130.84"/><line class="cls-10" x1="510.34" y1="128.56" x2="510.34" y2="116.03"/><polyline class="cls-13" points="510.34 114.89 510.34 112.89 512.34 112.89"/><line class="cls-10" x1="514.62" y1="112.89" x2="527.16" y2="112.89"/><polyline class="cls-13" points="528.3 112.89 530.3 112.89 530.3 114.89"/><line class="cls-10" x1="530.3" y1="117.17" x2="530.3" y2="129.7"/><polyline class="cls-13" points="530.3 130.84 530.3 132.84 528.3 132.84"/><line class="cls-10" x1="526.02" y1="132.84" x2="513.48" y2="132.84"/><polyline class="cls-13" points="560.79 158.45 558.79 158.45 558.79 156.45"/><line class="cls-10" x1="558.79" y1="154.17" x2="558.79" y2="141.64"/><polyline class="cls-13" points="558.79 140.5 558.79 138.5 560.79 138.5"/><line class="cls-10" x1="563.07" y1="138.5" x2="575.6" y2="138.5"/><polyline class="cls-13" points="576.74 138.5 578.74 138.5 578.74 140.5"/><line class="cls-10" x1="578.74" y1="142.78" x2="578.74" y2="155.31"/><polyline class="cls-13" points="578.74 156.45 578.74 158.45 576.74 158.45"/><line class="cls-10" x1="574.46" y1="158.45" x2="561.93" y2="158.45"/><polyline class="cls-13" points="620.77 213.45 618.77 213.45 618.77 211.45"/><line class="cls-10" x1="618.77" y1="209.17" x2="618.77" y2="196.64"/><polyline class="cls-13" points="618.77 195.5 618.77 193.5 620.77 193.5"/><line class="cls-11" x1="622.76" y1="193.5" x2="765.32" y2="193.5"/><polyline class="cls-13" points="766.32 193.5 768.32 193.5 768.32 195.5"/><line class="cls-10" x1="768.32" y1="197.78" x2="768.32" y2="210.31"/><polyline class="cls-13" points="768.32 211.45 768.32 213.45 766.32 213.45"/><line class="cls-11" x1="764.33" y1="213.45" x2="621.76" y2="213.45"/><line class="cls-6" x1="552.73" y1="244.29" x2="538.66" y2="230.23"/><polygon class="cls-6" points="540.94 228.98 536.12 227.69 537.41 232.51 540.94 228.98"/><line class="cls-6" x1="552.73" y1="250.3" x2="538.66" y2="264.37"/><polygon class="cls-6" points="537.41 262.09 536.12 266.91 540.94 265.62 537.41 262.09"/><polyline class="cls-13" points="560.79 257.84 558.79 257.84 558.79 255.84"/><line class="cls-10" x1="558.79" y1="253.56" x2="558.79" y2="241.03"/><polyline class="cls-13" points="558.79 239.89 558.79 237.89 560.79 237.89"/><line class="cls-10" x1="563.07" y1="237.89" x2="575.6" y2="237.89"/><polyline class="cls-13" points="576.74 237.89 578.74 237.89 578.74 239.89"/><line class="cls-10" x1="578.74" y1="242.17" x2="578.74" y2="254.7"/><polyline class="cls-13" points="578.74 255.84 578.74 257.84 576.74 257.84"/><line class="cls-10" x1="574.46" y1="257.84" x2="561.93" y2="257.84"/><polyline class="cls-13" points="512.34 182.16 510.34 182.16 510.34 180.16"/><line class="cls-10" x1="510.34" y1="177.88" x2="510.34" y2="165.34"/><polyline class="cls-13" points="510.34 164.2 510.34 162.2 512.34 162.2"/><line class="cls-10" x1="514.62" y1="162.2" x2="527.16" y2="162.2"/><polyline class="cls-13" points="528.3 162.2 530.3 162.2 530.3 164.2"/><line class="cls-10" x1="530.3" y1="166.48" x2="530.3" y2="179.02"/><polyline class="cls-13" points="530.3 180.16 530.3 182.16 528.3 182.16"/><line class="cls-10" x1="526.02" y1="182.16" x2="513.48" y2="182.16"/><polyline class="cls-13" points="512.34 231.47 510.34 231.47 510.34 229.47"/><line class="cls-10" x1="510.34" y1="227.2" x2="510.34" y2="214.66"/><polyline class="cls-13" points="510.34 213.52 510.34 211.52 512.34 211.52"/><line class="cls-10" x1="514.62" y1="211.52" x2="527.16" y2="211.52"/><polyline class="cls-13" points="528.3 211.52 530.3 211.52 530.3 213.52"/><line class="cls-10" x1="530.3" y1="215.8" x2="530.3" y2="228.34"/><polyline class="cls-13" points="530.3 229.47 530.3 231.47 528.3 231.47"/><line class="cls-10" x1="526.02" y1="231.47" x2="513.48" y2="231.47"/><polyline class="cls-13" points="512.34 280.79 510.34 280.79 510.34 278.79"/><line class="cls-10" x1="510.34" y1="276.51" x2="510.34" y2="263.98"/><polyline class="cls-13" points="510.34 262.84 510.34 260.84 512.34 260.84"/><line class="cls-10" x1="514.62" y1="260.84" x2="527.16" y2="260.84"/><polyline class="cls-13" points="528.3 260.84 530.3 260.84 530.3 262.84"/><line class="cls-10" x1="530.3" y1="265.12" x2="530.3" y2="277.65"/><polyline class="cls-13" points="530.3 278.79 530.3 280.79 528.3 280.79"/><line class="cls-10" x1="526.02" y1="280.79" x2="513.48" y2="280.79"/><rect class="cls-12" x="142.94" y="85.2" width="326.4" height="220.41"/><g class="cls-8"><text class="cls-1" transform="translate(449.95 56.02)"><tspan x="0" y="0">fixed-size chunk hashes</tspan></text></g><g class="cls-8"><text class="cls-1" transform="translate(617.89 182.15)"><tspan x="0" y="0">root hash</tspan></text></g><g class="cls-8"><text class="cls-3" transform="translate(632.38 209.67)"><tspan x="0" y="0">cidBlob</tspan></text></g><g class="cls-8"><text class="cls-3" transform="translate(168.54 114.96)"><tspan x="0" y="0">&lt;op</tspan></text><text class="cls-2" transform="translate(198.65 114.96)"><tspan x="0" y="0">a</tspan></text><text class="cls-3" transform="translate(207.63 114.96)"><tspan x="0" y="0">que d</tspan></text><text class="cls-7" transform="translate(251.61 114.96)"><tspan x="0" y="0">a</tspan></text><text class="cls-3" transform="translate(260.3 114.96)"><tspan x="0" y="0">t</tspan></text><text class="cls-3" transform="translate(267.61 114.96)"><tspan x="0" y="0">a&gt;</tspan></text><text class="cls-3" transform="translate(168.54 134.16)"><tspan x="0" y="0">.</tspan><tspan class="cls-16" x="4.05" y="0">.</tspan></text><text class="cls-4" transform="translate(176.64 134.16)"><tspan x="0" y="0">.</tspan></text></g><polyline class="cls-13" points="462.65 190.96 462.65 191.96 461.65 191.96"/><line class="cls-9" x1="459.64" y1="191.96" x2="155.2" y2="191.96"/><polyline class="cls-13" points="154.19 191.96 153.19 191.96 153.19 190.96"/><line class="cls-14" x1="153.19" y1="188.99" x2="153.19" y2="95.41"/><polyline class="cls-13" points="153.19 94.42 153.19 93.42 154.19 93.42"/><line class="cls-9" x1="156.2" y1="93.42" x2="460.65" y2="93.42"/><polyline class="cls-13" points="461.65 93.42 462.65 93.42 462.65 94.42"/><line class="cls-14" x1="462.65" y1="96.39" x2="462.65" y2="189.97"/><g class="cls-8"><text class="cls-3" transform="translate(168.54 218.99)"><tspan x="0" y="0">&lt;op</tspan></text><text class="cls-2" transform="translate(198.65 218.99)"><tspan x="0" y="0">a</tspan></text><text class="cls-3" transform="translate(207.63 218.99)"><tspan x="0" y="0">que d</tspan></text><text class="cls-7" transform="translate(251.61 218.99)"><tspan x="0" y="0">a</tspan></text><text class="cls-3" transform="translate(260.3 218.99)"><tspan x="0" y="0">t</tspan></text><text class="cls-3" transform="translate(267.61 218.99)"><tspan x="0" y="0">a co</tspan></text><text class="cls-5" transform="translate(300.38 218.99)"><tspan x="0" y="0">n</tspan></text><text class="cls-3" transform="translate(309.96 218.99)"><tspan x="0" y="0">ti</tspan></text><text class="cls-3" transform="translate(321.24 218.99)"><tspan x="0" y="0">n</tspan></text><text class="cls-3" transform="translate(330.92 218.99)"><tspan x="0" y="0">ued&gt;</tspan></text><text class="cls-3" transform="translate(168.54 238.19)"><tspan x="0" y="0">&lt;p</tspan></text><text class="cls-2" transform="translate(188.76 238.19)"><tspan x="0" y="0">a</tspan></text><text class="cls-3" transform="translate(197.74 238.19)"><tspan x="0" y="0">dding&gt;</tspan></text></g><polyline class="cls-13" points="462.65 294.99 462.65 295.99 461.65 295.99"/><line class="cls-9" x1="459.64" y1="295.99" x2="155.2" y2="295.99"/><polyline class="cls-13" points="154.19 295.99 153.19 295.99 153.19 294.99"/><line class="cls-14" x1="153.19" y1="293.02" x2="153.19" y2="199.44"/><polyline class="cls-13" points="153.19 198.46 153.19 197.46 154.19 197.46"/><line class="cls-9" x1="156.2" y1="197.46" x2="460.65" y2="197.46"/><polyline class="cls-13" points="461.65 197.46 462.65 197.46 462.65 198.46"/><line class="cls-14" x1="462.65" y1="200.43" x2="462.65" y2="294.01"/><path class="cls-13" d="m508.09,89.75s0-9.01,6.43-9.01h38.79c2.12,0,4.5-2.8,4.5-6.31h.14c0,3.5,2.38,6.31,4.5,6.31h38.79c6.43,0,6.43,9.01,6.43,9.01"/><g class="cls-8"><text class="cls-1" transform="translate(35.61 191.83)"><tspan x="0" y="0">binary</tspan></text><text class="cls-1" transform="translate(55.19 211.03)"><tspan x="0" y="0">data</tspan></text></g><path class="cls-13" d="m126.54,297s-9.01,0-9.01-13.24v-79.83c0-4.37-2.8-9.27-6.31-9.27v-.29c3.5,0,6.31-4.9,6.31-9.27v-79.83c0-13.24,9.01-13.24,9.01-13.24"/><text class="cls-15" transform="translate(143.67 34.31)"><tspan x="0" y="0">BLOB</tspan></text></svg>