<?xml version="1.0" encoding="UTF-8"?><svg id="Layer_1" xmlns="http://www.w3.org/2000/svg" viewBox="0 0 800 600"><defs><style>.cls-1{letter-spacing:-.02em;}.cls-2{stroke-dasharray:0 0 4.56 2.28;}.cls-2,.cls-3,.cls-4{stroke:#000;}.cls-2,.cls-3,.cls-4,.cls-5{fill:none;stroke-miterlimit:10;}.cls-6{font-size:10px;}.cls-6,.cls-7{font-family:SpaceMono-Regular, 'Space Mono';}.cls-8{font-family:SpaceGrotesk-Regular, 'Space Grotesk';}.cls-8,.cls-7,.cls-9{font-size:16px;}.cls-3{stroke-width:2.06px;}.cls-5{stroke:#7c7cf7;}.cls-10,.cls-11{stroke-width:0px;}.cls-9,.cls-12{font-family:SpaceMono-Italic, 'Space Mono';font-style:italic;}.cls-11,.cls-12{fill:#7c7cf7;}.cls-12{font-size:14px;}</style></defs><text class="cls-6" transform="translate(62.12 107.04)"><tspan x="0" y="0">77sfc23pszkazsxg5w4q2hlnpaqjgjsq4sg3z4py3sa6gzryfpuq</tspan><tspan x="0" y="15">77spgchxylthv4gxajjbr6xzrxrdsywan3bampxq4d7sdjadm6ja</tspan><tspan x="0" y="30">77sprwdzerf4jyxvcmei2zqm3v6g2uj7dacuxy5qsudzlupmvxtq</tspan><tspan x="0" y="45">77ssxzzetjl5q23akdo6bnskvytd3by5layzfo7md2g6zdimbitq</tspan><tspan x="0" y="60">77swfoyskeay37xyeva4hnqbcppnzk4fbidq63rgcvyg2bf7mrja</tspan><tspan x="0" y="75">77tsjjayznqg7x3lxenl37ovsmgn7eflohzphnqulxcaqzoapklha</tspan><tspan x="0" y="90">77tthnjl45kc6mu6at7jidy4gnecbjpvv56pra3d4pjjic2nbdia</tspan><tspan x="0" y="105">77t2vxk522bvrk6apoka5szx4z6ishkqwse7g233vehcxcgns5za</tspan><tspan x="0" y="120">77uni5pv4v5uqi6hvfnw3qn3xmdvau5uf7irogmeerhc7tkg2pga</tspan><tspan x="0" y="135">77vkstmp7vuwrk577lczmb6f7bthjgowthsuvekkyzpzrspe4cda</tspan><tspan x="0" y="150">77vp4qw5ystjutgp62rkkwpgk5azed6v2jlecza6q4vvfq52nzha</tspan><tspan x="0" y="165">77vw3sk5vdbku3ihnlz56prctaepgtixa455uv3fkn7ldbesaiza</tspan><tspan x="0" y="180">77wbps7i6w4c65mzetip6ddicvdhbehlv4pqbulylwrouz6m7w6a</tspan><tspan x="0" y="195">77wt3qq54ozfq4okttokzuqvdpl2yxyeu2pprrs33wg3ubxavv6q</tspan><tspan x="0" y="210">77xpqkwwacxhpf24zsa74mepojejix6aq7anfc7pkk4kxsmt3weq</tspan><tspan x="0" y="225">77x4xo3e75xxp727awgnjm6zeibab7mwyz7zmgocfu3u7p64bpba</tspan><tspan x="0" y="240">77yh3fsvz5zux5dxj63cgt25oukxreizebnmqoij26qudsv5vtuq</tspan><tspan x="0" y="255">77ymzl65vtqvvmglwht3eju2fubegkoioexs4uv6fuafkbxopskq</tspan><tspan x="0" y="270">77y56hsagwclv2zjqzbkkhx6v6md4u5bsnvbr3de2fbahoqencra</tspan><tspan x="0" y="285">77zlqqxiqwdiagw2radpy7hmovbnvfildnvgrhkktvttcaofyl4lq</tspan><tspan x="0" y="300">77zt64i5cbksxwko4cgzujhacjpi3tc3crtvulaidh2jj24ijmdq</tspan><tspan x="0" y="315">77z3c7m3iyphvnxjtt4udhcndefcnzs76il4nemk26l7hm6iirjq</tspan><tspan x="0" y="330">772c4xujdiwx5psgwfx5dyi2jfip4uzh6sv77teqokqqrp2ksyy4q</tspan><tspan x="0" y="345">772lsd75krvciemzjpmxcq5joehuaonchwvnrf2xtgjjmbq56keq</tspan><tspan x="0" y="360">772wghidfckvdllljjzswpiizw7h4pfpwxudiqcdjuysljfcxa5q</tspan><tspan x="0" y="375">77333v5l7vahorcpfqmrpidgr7tonfxzng3fr2qg2oz4xkwx2xoq</tspan><tspan x="0" y="390">774ebubybojiq3jfu4nqaxxof37pmin3mmgctrcneupmju45gogq</tspan><tspan x="0" y="405">...</tspan></text><line class="cls-4" x1="408.63" y1="476.31" x2="428.53" y2="476.31"/><polygon class="cls-10" points="427.8 478.8 432.11 476.31 427.8 473.82 427.8 478.8"/><line class="cls-4" x1="462.2" y1="130.74" x2="476.27" y2="144.8"/><polygon class="cls-10" points="473.99 146.05 478.81 147.34 477.52 142.53 473.99 146.05"/><line class="cls-4" x1="462.2" y1="169.95" x2="476.27" y2="155.89"/><polygon class="cls-10" points="477.52 158.16 478.81 153.35 473.99 154.64 477.52 158.16"/><line class="cls-4" x1="496.16" y1="163.9" x2="522.62" y2="197.1"/><polygon class="cls-10" points="520.21 198.09 524.85 199.91 524.11 194.98 520.21 198.09"/><line class="cls-4" x1="496.79" y1="237.69" x2="522.44" y2="209.47"/><polygon class="cls-10" points="523.79 211.69 524.85 206.82 520.1 208.33 523.79 211.69"/><line class="cls-4" x1="546.14" y1="219.8" x2="597.15" y2="299.46"/><polygon class="cls-10" points="594.66 300.19 599.08 302.49 598.85 297.51 594.66 300.19"/><line class="cls-4" x1="547.29" y1="389.22" x2="596.97" y2="321.24"/><polygon class="cls-10" points="598.55 323.3 599.08 318.34 594.52 320.36 598.55 323.3"/><line class="cls-4" x1="408.63" y1="427.18" x2="428.53" y2="427.18"/><polygon class="cls-10" points="427.8 429.67 432.11 427.18 427.8 424.69 427.8 429.67"/><line class="cls-4" x1="408.63" y1="378.05" x2="428.53" y2="378.05"/><polygon class="cls-10" points="427.8 380.54 432.11 378.05 427.8 375.56 427.8 380.54"/><line class="cls-4" x1="408.63" y1="328.92" x2="428.53" y2="328.92"/><polygon class="cls-10" points="427.8 331.41 432.11 328.92 427.8 326.43 427.8 331.41"/><polyline class="cls-4" points="438.42 135.27 436.42 135.27 436.42 133.27"/><line class="cls-2" x1="436.42" y1="131" x2="436.42" y2="118.46"/><polyline class="cls-4" points="436.42 117.32 436.42 115.32 438.42 115.32"/><line class="cls-2" x1="440.7" y1="115.32" x2="453.23" y2="115.32"/><polyline class="cls-4" points="454.37 115.32 456.37 115.32 456.37 117.32"/><line class="cls-2" x1="456.37" y1="119.6" x2="456.37" y2="132.14"/><polyline class="cls-4" points="456.37 133.27 456.37 135.27 454.37 135.27"/><line class="cls-2" x1="452.09" y1="135.27" x2="439.56" y2="135.27"/><polyline class="cls-4" points="486.87 160.89 484.87 160.89 484.87 158.89"/><line class="cls-2" x1="484.87" y1="156.61" x2="484.87" y2="144.07"/><polyline class="cls-4" points="484.87 142.93 484.87 140.93 486.87 140.93"/><line class="cls-2" x1="489.15" y1="140.93" x2="501.68" y2="140.93"/><polyline class="cls-4" points="502.82 140.93 504.82 140.93 504.82 142.93"/><line class="cls-2" x1="504.82" y1="145.21" x2="504.82" y2="157.75"/><polyline class="cls-4" points="504.82 158.89 504.82 160.89 502.82 160.89"/><line class="cls-2" x1="500.54" y1="160.89" x2="488.01" y2="160.89"/><rect class="cls-4" x="675.01" y="235.04" width="19.95" height="149.55" transform="translate(994.8 -375.17) rotate(90)"/><polyline class="cls-4" points="535.15 213.4 533.15 213.4 533.15 211.4"/><line class="cls-2" x1="533.15" y1="209.12" x2="533.15" y2="196.59"/><polyline class="cls-4" points="533.15 195.45 533.15 193.45 535.15 193.45"/><line class="cls-2" x1="537.43" y1="193.45" x2="549.96" y2="193.45"/><polyline class="cls-4" points="551.1 193.45 553.1 193.45 553.1 195.45"/><line class="cls-2" x1="553.1" y1="197.73" x2="553.1" y2="210.26"/><polyline class="cls-4" points="553.1 211.4 553.1 213.4 551.1 213.4"/><line class="cls-2" x1="548.82" y1="213.4" x2="536.29" y2="213.4"/><line class="cls-4" x1="462.2" y1="230.13" x2="476.27" y2="244.19"/><polygon class="cls-10" points="473.99 245.44 478.81 246.73 477.52 241.91 473.99 245.44"/><line class="cls-4" x1="462.2" y1="269.34" x2="476.27" y2="255.27"/><polygon class="cls-10" points="477.52 257.55 478.81 252.74 473.99 254.03 477.52 257.55"/><polyline class="cls-4" points="486.87 260.27 484.87 260.27 484.87 258.27"/><line class="cls-2" x1="484.87" y1="256" x2="484.87" y2="243.46"/><polyline class="cls-4" points="484.87 242.32 484.87 240.32 486.87 240.32"/><line class="cls-2" x1="489.15" y1="240.32" x2="501.68" y2="240.32"/><polyline class="cls-4" points="502.82 240.32 504.82 240.32 504.82 242.32"/><line class="cls-2" x1="504.82" y1="244.6" x2="504.82" y2="257.13"/><polyline class="cls-4" points="504.82 258.27 504.82 260.27 502.82 260.27"/><line class="cls-2" x1="500.54" y1="260.27" x2="488.01" y2="260.27"/><polyline class="cls-4" points="438.42 184.59 436.42 184.59 436.42 182.59"/><line class="cls-2" x1="436.42" y1="180.31" x2="436.42" y2="167.78"/><polyline class="cls-4" points="436.42 166.64 436.42 164.64 438.42 164.64"/><line class="cls-2" x1="440.7" y1="164.64" x2="453.23" y2="164.64"/><polyline class="cls-4" points="454.37 164.64 456.37 164.64 456.37 166.64"/><line class="cls-2" x1="456.37" y1="168.92" x2="456.37" y2="181.45"/><polyline class="cls-4" points="456.37 182.59 456.37 184.59 454.37 184.59"/><line class="cls-2" x1="452.09" y1="184.59" x2="439.56" y2="184.59"/><polyline class="cls-4" points="438.42 233.91 436.42 233.91 436.42 231.91"/><line class="cls-2" x1="436.42" y1="229.63" x2="436.42" y2="217.1"/><polyline class="cls-4" points="436.42 215.96 436.42 213.96 438.42 213.96"/><line class="cls-2" x1="440.7" y1="213.96" x2="453.23" y2="213.96"/><polyline class="cls-4" points="454.37 213.96 456.37 213.96 456.37 215.96"/><line class="cls-2" x1="456.37" y1="218.24" x2="456.37" y2="230.77"/><polyline class="cls-4" points="456.37 231.91 456.37 233.91 454.37 233.91"/><line class="cls-2" x1="452.09" y1="233.91" x2="439.56" y2="233.91"/><polyline class="cls-4" points="438.42 283.23 436.42 283.23 436.42 281.23"/><line class="cls-2" x1="436.42" y1="278.95" x2="436.42" y2="266.41"/><polyline class="cls-4" points="436.42 265.27 436.42 263.27 438.42 263.27"/><line class="cls-2" x1="440.7" y1="263.27" x2="453.23" y2="263.27"/><polyline class="cls-4" points="454.37 263.27 456.37 263.27 456.37 265.27"/><line class="cls-2" x1="456.37" y1="267.55" x2="456.37" y2="280.09"/><polyline class="cls-4" points="456.37 281.23 456.37 283.23 454.37 283.23"/><line class="cls-2" x1="452.09" y1="283.23" x2="439.56" y2="283.23"/><line class="cls-4" x1="408.63" y1="273.02" x2="428.53" y2="273.02"/><polygon class="cls-10" points="427.8 275.51 432.11 273.02 427.8 270.52 427.8 275.51"/><line class="cls-4" x1="462.2" y1="334.03" x2="476.27" y2="348.1"/><polygon class="cls-10" points="473.99 349.35 478.81 350.64 477.52 345.82 473.99 349.35"/><line class="cls-4" x1="462.2" y1="373.25" x2="476.27" y2="359.18"/><polygon class="cls-10" points="477.52 361.46 478.81 356.64 473.99 357.93 477.52 361.46"/><line class="cls-4" x1="496.16" y1="367.19" x2="522.62" y2="400.4"/><polygon class="cls-10" points="520.21 401.38 524.85 403.2 524.11 398.27 520.21 401.38"/><line class="cls-4" x1="496.79" y1="440.98" x2="522.44" y2="412.76"/><polygon class="cls-10" points="523.79 414.98 524.85 410.11 520.1 411.63 523.79 414.98"/><line class="cls-4" x1="408.63" y1="223.89" x2="428.53" y2="223.89"/><polygon class="cls-10" points="427.8 226.38 432.11 223.89 427.8 221.39 427.8 226.38"/><line class="cls-4" x1="408.63" y1="174.76" x2="428.53" y2="174.76"/><polygon class="cls-10" points="427.8 177.25 432.11 174.76 427.8 172.26 427.8 177.25"/><line class="cls-4" x1="408.63" y1="125.63" x2="428.53" y2="125.63"/><polygon class="cls-10" points="427.8 128.12 432.11 125.63 427.8 123.13 427.8 128.12"/><polyline class="cls-4" points="438.42 338.57 436.42 338.57 436.42 336.57"/><line class="cls-2" x1="436.42" y1="334.29" x2="436.42" y2="321.76"/><polyline class="cls-4" points="436.42 320.62 436.42 318.62 438.42 318.62"/><line class="cls-2" x1="440.7" y1="318.62" x2="453.23" y2="318.62"/><polyline class="cls-4" points="454.37 318.62 456.37 318.62 456.37 320.62"/><line class="cls-2" x1="456.37" y1="322.89" x2="456.37" y2="335.43"/><polyline class="cls-4" points="456.37 336.57 456.37 338.57 454.37 338.57"/><line class="cls-2" x1="452.09" y1="338.57" x2="439.56" y2="338.57"/><polyline class="cls-4" points="486.87 364.18 484.87 364.18 484.87 362.18"/><line class="cls-2" x1="484.87" y1="359.9" x2="484.87" y2="347.37"/><polyline class="cls-4" points="484.87 346.23 484.87 344.23 486.87 344.23"/><line class="cls-2" x1="489.15" y1="344.23" x2="501.68" y2="344.23"/><polyline class="cls-4" points="502.82 344.23 504.82 344.23 504.82 346.23"/><line class="cls-2" x1="504.82" y1="348.51" x2="504.82" y2="361.04"/><polyline class="cls-4" points="504.82 362.18 504.82 364.18 502.82 364.18"/><line class="cls-2" x1="500.54" y1="364.18" x2="488.01" y2="364.18"/><polyline class="cls-4" points="535.15 417.54 533.15 417.54 533.15 415.54"/><line class="cls-2" x1="533.15" y1="413.27" x2="533.15" y2="400.73"/><polyline class="cls-4" points="533.15 399.59 533.15 397.59 535.15 397.59"/><line class="cls-2" x1="537.43" y1="397.59" x2="549.96" y2="397.59"/><polyline class="cls-4" points="551.1 397.59 553.1 397.59 553.1 399.59"/><line class="cls-2" x1="553.1" y1="401.87" x2="553.1" y2="414.41"/><polyline class="cls-4" points="553.1 415.54 553.1 417.54 551.1 417.54"/><line class="cls-2" x1="548.82" y1="417.54" x2="536.29" y2="417.54"/><line class="cls-4" x1="462.2" y1="433.42" x2="476.27" y2="447.49"/><polygon class="cls-10" points="473.99 448.73 478.81 450.02 477.52 445.21 473.99 448.73"/><line class="cls-4" x1="462.2" y1="472.64" x2="476.27" y2="458.57"/><polygon class="cls-10" points="477.52 460.85 478.81 456.03 473.99 457.32 477.52 460.85"/><polyline class="cls-4" points="486.87 463.57 484.87 463.57 484.87 461.57"/><line class="cls-2" x1="484.87" y1="459.29" x2="484.87" y2="446.75"/><polyline class="cls-4" points="484.87 445.62 484.87 443.62 486.87 443.62"/><line class="cls-2" x1="489.15" y1="443.62" x2="501.68" y2="443.62"/><polyline class="cls-4" points="502.82 443.62 504.82 443.62 504.82 445.62"/><line class="cls-2" x1="504.82" y1="447.89" x2="504.82" y2="460.43"/><polyline class="cls-4" points="504.82 461.57 504.82 463.57 502.82 463.57"/><line class="cls-2" x1="500.54" y1="463.57" x2="488.01" y2="463.57"/><polyline class="cls-4" points="438.42 387.89 436.42 387.89 436.42 385.89"/><line class="cls-2" x1="436.42" y1="383.61" x2="436.42" y2="371.07"/><polyline class="cls-4" points="436.42 369.93 436.42 367.93 438.42 367.93"/><line class="cls-2" x1="440.7" y1="367.93" x2="453.23" y2="367.93"/><polyline class="cls-4" points="454.37 367.93 456.37 367.93 456.37 369.93"/><line class="cls-2" x1="456.37" y1="372.21" x2="456.37" y2="384.75"/><polyline class="cls-4" points="456.37 385.89 456.37 387.89 454.37 387.89"/><line class="cls-2" x1="452.09" y1="387.89" x2="439.56" y2="387.89"/><polyline class="cls-4" points="438.42 437.2 436.42 437.2 436.42 435.2"/><line class="cls-2" x1="436.42" y1="432.92" x2="436.42" y2="420.39"/><polyline class="cls-4" points="436.42 419.25 436.42 417.25 438.42 417.25"/><line class="cls-2" x1="440.7" y1="417.25" x2="453.23" y2="417.25"/><polyline class="cls-4" points="454.37 417.25 456.37 417.25 456.37 419.25"/><line class="cls-2" x1="456.37" y1="421.53" x2="456.37" y2="434.06"/><polyline class="cls-4" points="456.37 435.2 456.37 437.2 454.37 437.2"/><line class="cls-2" x1="452.09" y1="437.2" x2="439.56" y2="437.2"/><polyline class="cls-4" points="438.42 486.52 436.42 486.52 436.42 484.52"/><line class="cls-2" x1="436.42" y1="482.24" x2="436.42" y2="469.71"/><polyline class="cls-4" points="436.42 468.57 436.42 466.57 438.42 466.57"/><line class="cls-2" x1="440.7" y1="466.57" x2="453.23" y2="466.57"/><polyline class="cls-4" points="454.37 466.57 456.37 466.57 456.37 468.57"/><line class="cls-2" x1="456.37" y1="470.85" x2="456.37" y2="483.38"/><polyline class="cls-4" points="456.37 484.52 456.37 486.52 454.37 486.52"/><line class="cls-2" x1="452.09" y1="486.52" x2="439.56" y2="486.52"/><rect class="cls-3" x="48.51" y="87.22" width="346.99" height="431.84"/><text class="cls-7" transform="translate(461.72 67.26)"><tspan x="0" y="0">tree hashes</tspan></text><text class="cls-9" transform="translate(110.52 52.6)"><tspan x="0" y="0">collection hash sequence</tspan></text><text class="cls-12" transform="translate(73.53 554.6)"><tspan x="0" y="0">conventionally, metadata blob is first hash</tspan></text><text class="cls-7" transform="translate(606.33 288.49)"><tspan x="0" y="0">root hash</tspan></text><text class="cls-8" transform="translate(623.82 316.01)"><tspan x="0" y="0">cidColle</tspan><tspan class="cls-1" x="61.26" y="0">c</tspan><tspan x="70.51" y="0">tion</tspan></text><path class="cls-4" d="m434.17,92.18s0-9.01,10.71-9.01c10.71,0,61.02,0,64.56,0s7.5-2.8,7.5-6.31h.24c0,3.5,3.96,6.31,7.5,6.31h64.56c10.71,0,10.71,9.01,10.71,9.01"/><line class="cls-5" x1="227.41" y1="60.09" x2="227.41" y2="75.54"/><polygon class="cls-11" points="223.92 74.52 227.41 80.56 230.9 74.52 223.92 74.52"/><polyline class="cls-5" points="53.98 104.09 31 104.09 31 547.09 67 547.09"/><polygon class="cls-11" points="52.96 100.6 59 104.09 52.96 107.58 52.96 100.6"/></svg>