<?xml version="1.0" encoding="UTF-8"?><svg id="Layer_1" xmlns="http://www.w3.org/2000/svg" xmlns:xlink="http://www.w3.org/1999/xlink" viewBox="0 0 875 275.01"><defs><style>.cls-1,.cls-2,.cls-3,.cls-4{fill:none;}.cls-5,.cls-6{font-size:16px;}.cls-7{clip-path:url(#clippath);}.cls-8{fill:#f2f2f2;}.cls-2{stroke-dasharray:0 0 4.56 2.28;}.cls-2,.cls-3,.cls-9,.cls-10,.cls-4{stroke:#000;stroke-miterlimit:10;}.cls-3{stroke-dasharray:0 0 4 2;}.cls-11{clip-path:url(#clippath-1);}.cls-12{clip-path:url(#clippath-4);}.cls-13{clip-path:url(#clippath-3);}.cls-14{clip-path:url(#clippath-2);}.cls-15{clip-path:url(#clippath-6);}.cls-16{clip-path:url(#clippath-5);}.cls-17,.cls-6{font-family:SpaceMono-Regular, 'Space Mono';}.cls-9{fill:#fff;}.cls-10{fill:#cecece;}.cls-18{font-size:12px;}</style><clipPath id="clippath"><rect class="cls-1" x="465.8" y="227.95" width="47.06" height="19.95"/></clipPath><clipPath id="clippath-1"><rect class="cls-1" x="414.41" y="129.82" width="19.95" height="19.95"/></clipPath><clipPath id="clippath-2"><rect class="cls-1" x="273.61" y="82.01" width="19.95" height="19.95"/></clipPath><clipPath id="clippath-3"><rect class="cls-1" x="468.62" y="81.64" width="19.95" height="19.95"/></clipPath><clipPath id="clippath-4"><rect class="cls-1" x="573.02" y="48.13" width="19.95" height="19.95"/></clipPath><clipPath id="clippath-5"><rect class="cls-1" x="375.26" y="10.11" width="19.95" height="19.95"/></clipPath><clipPath id="clippath-6"><rect class="cls-1" x="482.36" y="129.82" width="19.95" height="19.95"/></clipPath></defs><rect class="cls-8" x="551.72" y="23.18" width="300.42" height="69.14"/><g><line class="cls-4" x1="227.73" y1="156.13" x2="213.66" y2="170.2"/><polygon points="212.41 167.92 211.12 172.74 215.94 171.45 212.41 167.92"/></g><g><line class="cls-4" x1="233.73" y1="156.13" x2="247.8" y2="170.2"/><polygon points="245.52 171.45 250.34 172.74 249.05 167.92 245.52 171.45"/></g><g><line class="cls-4" x1="280.29" y1="110.09" x2="247.09" y2="136.54"/><polygon points="246.11 134.14 244.28 138.78 249.21 138.04 246.11 134.14"/></g><g><line class="cls-4" x1="287.2" y1="110.09" x2="315.42" y2="135.74"/><polygon points="313.2 137.09 318.07 138.15 316.55 133.4 313.2 137.09"/></g><g><line class="cls-4" x1="382.87" y1="35.85" x2="303.21" y2="86.86"/><polygon points="302.48 84.37 300.19 88.8 305.17 88.57 302.48 84.37"/></g><g><line class="cls-4" x1="388.73" y1="35.85" x2="456.71" y2="85.53"/><polygon points="454.65 87.11 459.6 87.65 457.59 83.09 454.65 87.11"/></g><g><polyline class="cls-4" points="215.66 196.52 215.66 198.52 213.66 198.52"/><line class="cls-2" x1="211.38" y1="198.52" x2="198.85" y2="198.52"/><polyline class="cls-4" points="197.71 198.52 195.71 198.52 195.71 196.52"/><line class="cls-2" x1="195.71" y1="194.24" x2="195.71" y2="181.7"/><polyline class="cls-4" points="195.71 180.56 195.71 178.56 197.71 178.56"/><line class="cls-2" x1="199.98" y1="178.56" x2="212.52" y2="178.56"/><polyline class="cls-4" points="213.66 178.56 215.66 178.56 215.66 180.56"/><line class="cls-2" x1="215.66" y1="182.84" x2="215.66" y2="195.38"/></g><g><polyline class="cls-4" points="241.27 148.07 241.27 150.07 239.27 150.07"/><line class="cls-2" x1="236.99" y1="150.07" x2="224.46" y2="150.07"/><polyline class="cls-4" points="223.32 150.07 221.32 150.07 221.32 148.07"/><line class="cls-2" x1="221.32" y1="145.79" x2="221.32" y2="133.26"/><polyline class="cls-4" points="221.32 132.12 221.32 130.12 223.32 130.12"/><line class="cls-2" x1="225.6" y1="130.12" x2="238.13" y2="130.12"/><polyline class="cls-4" points="239.27 130.12 241.27 130.12 241.27 132.12"/><line class="cls-2" x1="241.27" y1="134.4" x2="241.27" y2="146.93"/></g><rect class="cls-3" x="273.83" y="81.84" width="19.95" height="19.95"/><g><line class="cls-4" x1="327.11" y1="156.13" x2="313.05" y2="170.2"/><polygon points="311.8 167.92 310.51 172.74 315.32 171.45 311.8 167.92"/></g><g><line class="cls-4" x1="333.12" y1="156.13" x2="347.19" y2="170.2"/><polygon points="344.91 171.45 349.73 172.74 348.44 167.92 344.91 171.45"/></g><g><polyline class="cls-4" points="340.66 148.07 340.66 150.07 338.66 150.07"/><line class="cls-2" x1="336.38" y1="150.07" x2="323.84" y2="150.07"/><polyline class="cls-4" points="322.71 150.07 320.71 150.07 320.71 148.07"/><line class="cls-2" x1="320.71" y1="145.79" x2="320.71" y2="133.26"/><polyline class="cls-4" points="320.71 132.12 320.71 130.12 322.71 130.12"/><line class="cls-2" x1="324.98" y1="130.12" x2="337.52" y2="130.12"/><polyline class="cls-4" points="338.66 130.12 340.66 130.12 340.66 132.12"/><line class="cls-2" x1="340.66" y1="134.4" x2="340.66" y2="146.93"/></g><g><polyline class="cls-4" points="264.18 196.52 264.18 198.52 262.18 198.52"/><line class="cls-2" x1="259.9" y1="198.52" x2="247.37" y2="198.52"/><polyline class="cls-4" points="246.23 198.52 244.23 198.52 244.23 196.52"/><line class="cls-2" x1="244.23" y1="194.24" x2="244.23" y2="181.7"/><polyline class="cls-4" points="244.23 180.56 244.23 178.56 246.23 178.56"/><line class="cls-2" x1="248.51" y1="178.56" x2="261.04" y2="178.56"/><polyline class="cls-4" points="262.18 178.56 264.18 178.56 264.18 180.56"/><line class="cls-2" x1="264.18" y1="182.84" x2="264.18" y2="195.38"/></g><g><polyline class="cls-4" points="312.7 196.52 312.7 198.52 310.7 198.52"/><line class="cls-2" x1="308.42" y1="198.52" x2="295.89" y2="198.52"/><polyline class="cls-4" points="294.75 198.52 292.75 198.52 292.75 196.52"/><line class="cls-2" x1="292.75" y1="194.24" x2="292.75" y2="181.7"/><polyline class="cls-4" points="292.75 180.56 292.75 178.56 294.75 178.56"/><line class="cls-2" x1="297.03" y1="178.56" x2="309.56" y2="178.56"/><polyline class="cls-4" points="310.7 178.56 312.7 178.56 312.7 180.56"/><line class="cls-2" x1="312.7" y1="182.84" x2="312.7" y2="195.38"/></g><g><polyline class="cls-4" points="361.23 196.52 361.23 198.52 359.23 198.52"/><line class="cls-2" x1="356.95" y1="198.52" x2="344.41" y2="198.52"/><polyline class="cls-4" points="343.27 198.52 341.27 198.52 341.27 196.52"/><line class="cls-2" x1="341.27" y1="194.24" x2="341.27" y2="181.7"/><polyline class="cls-4" points="341.27 180.56 341.27 178.56 343.27 178.56"/><line class="cls-2" x1="345.55" y1="178.56" x2="358.09" y2="178.56"/><polyline class="cls-4" points="359.23 178.56 361.23 178.56 361.23 180.56"/><line class="cls-2" x1="361.23" y1="182.84" x2="361.23" y2="195.38"/></g><g><line class="cls-4" x1="421.02" y1="156.13" x2="406.95" y2="170.2"/><polygon points="405.7 167.92 404.41 172.74 409.23 171.45 405.7 167.92"/></g><g><line class="cls-4" x1="427.03" y1="156.13" x2="441.09" y2="170.2"/><polygon points="438.82 171.45 443.63 172.74 442.34 167.92 438.82 171.45"/></g><g><line class="cls-4" x1="473.59" y1="110.09" x2="440.38" y2="136.54"/><polygon points="439.4 134.14 437.58 138.78 442.51 138.04 439.4 134.14"/></g><g><line class="cls-4" x1="480.49" y1="110.09" x2="490.38" y2="123.6"/><polygon points="487.93 124.48 492.49 126.49 491.96 121.54 487.93 124.48"/></g><g><line class="cls-4" x1="206.42" y1="205.33" x2="206.57" y2="217.54"/><polygon points="204.07 216.84 206.61 221.13 209.05 216.78 204.07 216.84"/></g><g><line class="cls-4" x1="254.75" y1="205.33" x2="254.9" y2="217.54"/><polygon points="252.4 216.84 254.94 221.13 257.38 216.78 252.4 216.84"/></g><g><line class="cls-4" x1="303.08" y1="205.33" x2="303.23" y2="217.54"/><polygon points="300.73 216.84 303.27 221.13 305.71 216.78 300.73 216.84"/></g><g><line class="cls-4" x1="351.41" y1="205.33" x2="351.56" y2="217.54"/><polygon points="349.05 216.84 351.6 221.13 354.04 216.78 349.05 216.84"/></g><g><line class="cls-4" x1="399.74" y1="205.33" x2="399.89" y2="217.54"/><polygon points="397.38 216.84 399.93 221.13 402.37 216.78 397.38 216.84"/></g><g><line class="cls-4" x1="448.07" y1="205.33" x2="448.22" y2="217.54"/><polygon points="445.71 216.84 448.26 221.13 450.7 216.78 445.71 216.84"/></g><g><line class="cls-4" x1="492.29" y1="160.38" x2="492.47" y2="217.54"/><polygon points="489.97 216.82 492.48 221.13 494.96 216.8 489.97 216.82"/></g><g><polyline class="cls-4" points="409.75 196.52 409.75 198.52 407.75 198.52"/><line class="cls-2" x1="405.47" y1="198.52" x2="392.93" y2="198.52"/><polyline class="cls-4" points="391.79 198.52 389.79 198.52 389.79 196.52"/><line class="cls-2" x1="389.79" y1="194.24" x2="389.79" y2="181.7"/><polyline class="cls-4" points="389.79 180.56 389.79 178.56 391.79 178.56"/><line class="cls-2" x1="394.07" y1="178.56" x2="406.61" y2="178.56"/><polyline class="cls-4" points="407.75 178.56 409.75 178.56 409.75 180.56"/><line class="cls-2" x1="409.75" y1="182.84" x2="409.75" y2="195.38"/></g><rect class="cls-3" x="414.61" y="130.12" width="19.95" height="19.95"/><rect class="cls-3" x="467.98" y="81.84" width="19.95" height="19.95"/><rect class="cls-3" x="375.41" y="9.84" width="19.95" height="19.95"/><rect class="cls-3" x="482" y="130.12" width="19.95" height="19.95"/><rect class="cls-10" x="184.73" y="228.05" width="328.33" height="19.95"/><g><polyline class="cls-4" points="458.27 196.52 458.27 198.52 456.27 198.52"/><line class="cls-2" x1="453.99" y1="198.52" x2="441.46" y2="198.52"/><polyline class="cls-4" points="440.32 198.52 438.32 198.52 438.32 196.52"/><line class="cls-2" x1="438.32" y1="194.24" x2="438.32" y2="181.7"/><polyline class="cls-4" points="438.32 180.56 438.32 178.56 440.32 178.56"/><line class="cls-2" x1="442.6" y1="178.56" x2="455.13" y2="178.56"/><polyline class="cls-4" points="456.27 178.56 458.27 178.56 458.27 180.56"/><line class="cls-2" x1="458.27" y1="182.84" x2="458.27" y2="195.38"/></g><text class="cls-17" transform="translate(88.77 91.61)"><tspan class="cls-5"><tspan x="0" y="0">hashes</tspan></tspan><tspan class="cls-18"><tspan x="-44.06" y="14.4">32 byte leaves</tspan></tspan><tspan class="cls-18"><tspan x="-58.75" y="28.8">64 byte branches</tspan></tspan></text><text class="cls-17" transform="translate(51.52 240.83)"><tspan class="cls-5"><tspan x="0" y="0">blob data</tspan></tspan><tspan class="cls-18"><tspan x="7.34" y="14.4">1Kib chunks</tspan></tspan></text><path class="cls-4" d="M176.55,198.61s-9.01,0-9.01-19.8V113.41c0-6.54-2.8-13.86-6.31-13.86v-.44c3.5,0,6.31-7.32,6.31-13.86V31.85c0-19.8,9.01-19.8,9.01-19.8"/><rect class="cls-9" x="572.53" y="47.99" width="19.95" height="19.95"/><text class="cls-6" transform="translate(604.38 61.92)"><tspan x="0" y="0">REQUIRED FOR SIZE PROOF</tspan></text><line class="cls-4" x1="231.68" y1="227.95" x2="231.68" y2="247.91"/><line class="cls-4" x1="184.84" y1="227.95" x2="184.84" y2="247.91"/><line class="cls-4" x1="278.52" y1="227.95" x2="278.52" y2="247.91"/><line class="cls-4" x1="325.37" y1="227.95" x2="325.37" y2="247.91"/><line class="cls-4" x1="372.21" y1="227.95" x2="372.21" y2="247.91"/><line class="cls-4" x1="419.05" y1="227.95" x2="419.05" y2="247.91"/><line class="cls-4" x1="465.9" y1="227.95" x2="465.9" y2="247.91"/><line class="cls-4" x1="512.74" y1="227.95" x2="512.74" y2="247.91"/><g class="cls-7"><g><line class="cls-4" x1="442.25" y1="247.91" x2="462.01" y2="228.14"/><line class="cls-4" x1="446.39" y1="247.91" x2="466.15" y2="228.14"/><line class="cls-4" x1="450.53" y1="247.91" x2="470.29" y2="228.14"/><line class="cls-4" x1="454.67" y1="247.91" x2="474.43" y2="228.14"/><line class="cls-4" x1="458.81" y1="247.91" x2="478.58" y2="228.14"/><line class="cls-4" x1="462.95" y1="247.91" x2="482.72" y2="228.14"/><line class="cls-4" x1="467.09" y1="247.91" x2="486.86" y2="228.14"/><line class="cls-4" x1="471.23" y1="247.91" x2="491" y2="228.14"/><line class="cls-4" x1="475.38" y1="247.91" x2="495.14" y2="228.14"/><line class="cls-4" x1="479.52" y1="247.91" x2="499.28" y2="228.14"/><line class="cls-4" x1="483.66" y1="247.91" x2="503.42" y2="228.14"/><line class="cls-4" x1="487.8" y1="247.91" x2="507.56" y2="228.14"/><line class="cls-4" x1="491.94" y1="247.91" x2="511.7" y2="228.14"/><line class="cls-4" x1="496.08" y1="247.91" x2="515.85" y2="228.14"/><line class="cls-4" x1="500.22" y1="247.91" x2="519.99" y2="228.14"/><line class="cls-4" x1="504.36" y1="247.91" x2="524.13" y2="228.14"/><line class="cls-4" x1="508.5" y1="247.91" x2="528.27" y2="228.14"/><line class="cls-4" x1="512.65" y1="247.91" x2="532.41" y2="228.14"/><line class="cls-4" x1="516.79" y1="247.91" x2="536.55" y2="228.14"/><line class="cls-4" x1="520.93" y1="247.91" x2="540.69" y2="228.14"/><line class="cls-4" x1="525.07" y1="247.91" x2="544.83" y2="228.14"/></g></g><g class="cls-11"><g><line class="cls-4" x1="363.75" y1="149.78" x2="383.52" y2="130.01"/><line class="cls-4" x1="367.89" y1="149.78" x2="387.66" y2="130.01"/><line class="cls-4" x1="372.03" y1="149.78" x2="391.8" y2="130.01"/><line class="cls-4" x1="376.18" y1="149.78" x2="395.94" y2="130.01"/><line class="cls-4" x1="380.32" y1="149.78" x2="400.08" y2="130.01"/><line class="cls-4" x1="384.46" y1="149.78" x2="404.22" y2="130.01"/><line class="cls-4" x1="388.6" y1="149.78" x2="408.36" y2="130.01"/><line class="cls-4" x1="392.74" y1="149.78" x2="412.51" y2="130.01"/><line class="cls-4" x1="396.88" y1="149.78" x2="416.65" y2="130.01"/><line class="cls-4" x1="401.02" y1="149.78" x2="420.79" y2="130.01"/><line class="cls-4" x1="405.16" y1="149.78" x2="424.93" y2="130.01"/><line class="cls-4" x1="409.31" y1="149.78" x2="429.07" y2="130.01"/><line class="cls-4" x1="413.45" y1="149.78" x2="433.21" y2="130.01"/><line class="cls-4" x1="417.59" y1="149.78" x2="437.35" y2="130.01"/><line class="cls-4" x1="421.73" y1="149.78" x2="441.49" y2="130.01"/><line class="cls-4" x1="425.87" y1="149.78" x2="445.63" y2="130.01"/><line class="cls-4" x1="430.01" y1="149.78" x2="449.78" y2="130.01"/><line class="cls-4" x1="434.15" y1="149.78" x2="453.92" y2="130.01"/><line class="cls-4" x1="438.29" y1="149.78" x2="458.06" y2="130.01"/><line class="cls-4" x1="442.43" y1="149.78" x2="462.2" y2="130.01"/><line class="cls-4" x1="446.58" y1="149.78" x2="466.34" y2="130.01"/></g></g><g class="cls-14"><g><line class="cls-4" x1="222.95" y1="101.96" x2="242.72" y2="82.2"/><line class="cls-4" x1="227.09" y1="101.96" x2="246.86" y2="82.2"/><line class="cls-4" x1="231.23" y1="101.96" x2="251" y2="82.2"/><line class="cls-4" x1="235.38" y1="101.96" x2="255.14" y2="82.2"/><line class="cls-4" x1="239.52" y1="101.96" x2="259.28" y2="82.2"/><line class="cls-4" x1="243.66" y1="101.96" x2="263.42" y2="82.2"/><line class="cls-4" x1="247.8" y1="101.96" x2="267.56" y2="82.2"/><line class="cls-4" x1="251.94" y1="101.96" x2="271.71" y2="82.2"/><line class="cls-4" x1="256.08" y1="101.96" x2="275.85" y2="82.2"/><line class="cls-4" x1="260.22" y1="101.96" x2="279.99" y2="82.2"/><line class="cls-4" x1="264.36" y1="101.96" x2="284.13" y2="82.2"/><line class="cls-4" x1="268.51" y1="101.96" x2="288.27" y2="82.2"/><line class="cls-4" x1="272.65" y1="101.96" x2="292.41" y2="82.2"/><line class="cls-4" x1="276.79" y1="101.96" x2="296.55" y2="82.2"/><line class="cls-4" x1="280.93" y1="101.96" x2="300.69" y2="82.2"/><line class="cls-4" x1="285.07" y1="101.96" x2="304.83" y2="82.2"/><line class="cls-4" x1="289.21" y1="101.96" x2="308.98" y2="82.2"/><line class="cls-4" x1="293.35" y1="101.96" x2="313.12" y2="82.2"/><line class="cls-4" x1="297.49" y1="101.96" x2="317.26" y2="82.2"/><line class="cls-4" x1="301.63" y1="101.96" x2="321.4" y2="82.2"/><line class="cls-4" x1="305.78" y1="101.96" x2="325.54" y2="82.2"/></g></g><g class="cls-13"><g><line class="cls-4" x1="417.96" y1="101.59" x2="437.73" y2="81.82"/><line class="cls-4" x1="422.11" y1="101.59" x2="441.87" y2="81.82"/><line class="cls-4" x1="426.25" y1="101.59" x2="446.01" y2="81.82"/><line class="cls-4" x1="430.39" y1="101.59" x2="450.15" y2="81.82"/><line class="cls-4" x1="434.53" y1="101.59" x2="454.29" y2="81.82"/><line class="cls-4" x1="438.67" y1="101.59" x2="458.43" y2="81.82"/><line class="cls-4" x1="442.81" y1="101.59" x2="462.58" y2="81.82"/><line class="cls-4" x1="446.95" y1="101.59" x2="466.72" y2="81.82"/><line class="cls-4" x1="451.09" y1="101.59" x2="470.86" y2="81.82"/><line class="cls-4" x1="455.23" y1="101.59" x2="475" y2="81.82"/><line class="cls-4" x1="459.38" y1="101.59" x2="479.14" y2="81.82"/><line class="cls-4" x1="463.52" y1="101.59" x2="483.28" y2="81.82"/><line class="cls-4" x1="467.66" y1="101.59" x2="487.42" y2="81.82"/><line class="cls-4" x1="471.8" y1="101.59" x2="491.56" y2="81.82"/><line class="cls-4" x1="475.94" y1="101.59" x2="495.71" y2="81.82"/><line class="cls-4" x1="480.08" y1="101.59" x2="499.85" y2="81.82"/><line class="cls-4" x1="484.22" y1="101.59" x2="503.99" y2="81.82"/><line class="cls-4" x1="488.36" y1="101.59" x2="508.13" y2="81.82"/><line class="cls-4" x1="492.51" y1="101.59" x2="512.27" y2="81.82"/><line class="cls-4" x1="496.65" y1="101.59" x2="516.41" y2="81.82"/><line class="cls-4" x1="500.79" y1="101.59" x2="520.55" y2="81.82"/></g></g><g class="cls-12"><g><line class="cls-4" x1="522.36" y1="68.08" x2="542.13" y2="48.32"/><line class="cls-4" x1="526.5" y1="68.08" x2="546.27" y2="48.32"/><line class="cls-4" x1="530.65" y1="68.08" x2="550.41" y2="48.32"/><line class="cls-4" x1="534.79" y1="68.08" x2="554.55" y2="48.32"/><line class="cls-4" x1="538.93" y1="68.08" x2="558.69" y2="48.32"/><line class="cls-4" x1="543.07" y1="68.08" x2="562.83" y2="48.32"/><line class="cls-4" x1="547.21" y1="68.08" x2="566.98" y2="48.32"/><line class="cls-4" x1="551.35" y1="68.08" x2="571.12" y2="48.32"/><line class="cls-4" x1="555.49" y1="68.08" x2="575.26" y2="48.32"/><line class="cls-4" x1="559.63" y1="68.08" x2="579.4" y2="48.32"/><line class="cls-4" x1="563.78" y1="68.08" x2="583.54" y2="48.32"/><line class="cls-4" x1="567.92" y1="68.08" x2="587.68" y2="48.32"/><line class="cls-4" x1="572.06" y1="68.08" x2="591.82" y2="48.32"/><line class="cls-4" x1="576.2" y1="68.08" x2="595.96" y2="48.32"/><line class="cls-4" x1="580.34" y1="68.08" x2="600.1" y2="48.32"/><line class="cls-4" x1="584.48" y1="68.08" x2="604.25" y2="48.32"/><line class="cls-4" x1="588.62" y1="68.08" x2="608.39" y2="48.32"/><line class="cls-4" x1="592.76" y1="68.08" x2="612.53" y2="48.32"/><line class="cls-4" x1="596.9" y1="68.08" x2="616.67" y2="48.32"/><line class="cls-4" x1="601.05" y1="68.08" x2="620.81" y2="48.32"/><line class="cls-4" x1="605.19" y1="68.08" x2="624.95" y2="48.32"/></g></g><g class="cls-16"><g><line class="cls-4" x1="324.6" y1="30.06" x2="344.36" y2="10.29"/><line class="cls-4" x1="328.74" y1="30.06" x2="348.51" y2="10.29"/><line class="cls-4" x1="332.88" y1="30.06" x2="352.65" y2="10.29"/><line class="cls-4" x1="337.02" y1="30.06" x2="356.79" y2="10.29"/><line class="cls-4" x1="341.16" y1="30.06" x2="360.93" y2="10.29"/><line class="cls-4" x1="345.31" y1="30.06" x2="365.07" y2="10.29"/><line class="cls-4" x1="349.45" y1="30.06" x2="369.21" y2="10.29"/><line class="cls-4" x1="353.59" y1="30.06" x2="373.35" y2="10.29"/><line class="cls-4" x1="357.73" y1="30.06" x2="377.49" y2="10.29"/><line class="cls-4" x1="361.87" y1="30.06" x2="381.63" y2="10.29"/><line class="cls-4" x1="366.01" y1="30.06" x2="385.78" y2="10.29"/><line class="cls-4" x1="370.15" y1="30.06" x2="389.92" y2="10.29"/><line class="cls-4" x1="374.29" y1="30.06" x2="394.06" y2="10.29"/><line class="cls-4" x1="378.43" y1="30.06" x2="398.2" y2="10.29"/><line class="cls-4" x1="382.58" y1="30.06" x2="402.34" y2="10.29"/><line class="cls-4" x1="386.72" y1="30.06" x2="406.48" y2="10.29"/><line class="cls-4" x1="390.86" y1="30.06" x2="410.62" y2="10.29"/><line class="cls-4" x1="395" y1="30.06" x2="414.76" y2="10.29"/><line class="cls-4" x1="399.14" y1="30.06" x2="418.91" y2="10.29"/><line class="cls-4" x1="403.28" y1="30.06" x2="423.05" y2="10.29"/><line class="cls-4" x1="407.42" y1="30.06" x2="427.19" y2="10.29"/></g></g><g class="cls-15"><g><line class="cls-4" x1="431.71" y1="149.78" x2="451.47" y2="130.01"/><line class="cls-4" x1="435.85" y1="149.78" x2="455.61" y2="130.01"/><line class="cls-4" x1="439.99" y1="149.78" x2="459.75" y2="130.01"/><line class="cls-4" x1="444.13" y1="149.78" x2="463.89" y2="130.01"/><line class="cls-4" x1="448.27" y1="149.78" x2="468.03" y2="130.01"/><line class="cls-4" x1="452.41" y1="149.78" x2="472.18" y2="130.01"/><line class="cls-4" x1="456.55" y1="149.78" x2="476.32" y2="130.01"/><line class="cls-4" x1="460.69" y1="149.78" x2="480.46" y2="130.01"/><line class="cls-4" x1="464.83" y1="149.78" x2="484.6" y2="130.01"/><line class="cls-4" x1="468.98" y1="149.78" x2="488.74" y2="130.01"/><line class="cls-4" x1="473.12" y1="149.78" x2="492.88" y2="130.01"/><line class="cls-4" x1="477.26" y1="149.78" x2="497.02" y2="130.01"/><line class="cls-4" x1="481.4" y1="149.78" x2="501.16" y2="130.01"/><line class="cls-4" x1="485.54" y1="149.78" x2="505.3" y2="130.01"/><line class="cls-4" x1="489.68" y1="149.78" x2="509.45" y2="130.01"/><line class="cls-4" x1="493.82" y1="149.78" x2="513.59" y2="130.01"/><line class="cls-4" x1="497.96" y1="149.78" x2="517.73" y2="130.01"/><line class="cls-4" x1="502.11" y1="149.78" x2="521.87" y2="130.01"/><line class="cls-4" x1="506.25" y1="149.78" x2="526.01" y2="130.01"/><line class="cls-4" x1="510.39" y1="149.78" x2="530.15" y2="130.01"/><line class="cls-4" x1="514.53" y1="149.78" x2="534.29" y2="130.01"/></g></g></svg>