<?xml version="1.0" encoding="UTF-8"?><svg id="Layer_1" xmlns="http://www.w3.org/2000/svg" viewBox="0 0 800 350"><defs><style>.cls-1{stroke-dasharray:0 0 0 0 0 0 2.01 2.01;}.cls-1,.cls-2,.cls-3,.cls-4,.cls-5,.cls-6,.cls-7{fill:none;stroke-miterlimit:10;}.cls-1,.cls-6,.cls-7{stroke:#999;}.cls-2{stroke-dasharray:0 0 0 0 0 0 4.56 2.28;}.cls-2,.cls-3,.cls-4,.cls-5{stroke:#000;}.cls-8{fill:#7c7cf7;font-family:SpaceMono-Bold, 'Space Mono';font-size:20px;font-weight:700;letter-spacing:.05em;}.cls-3{stroke-dasharray:0 0 0 0 0 0 3.99 1.99;}.cls-4{stroke-width:2px;}.cls-9{letter-spacing:0em;}.cls-9,.cls-10,.cls-11,.cls-12,.cls-13,.cls-14,.cls-15{isolation:isolate;}.cls-9,.cls-10,.cls-11,.cls-13,.cls-14,.cls-15{font-size:16px;}.cls-9,.cls-10,.cls-11,.cls-13,.cls-15{font-family:SpaceGrotesk-Regular, 'Space Grotesk';}.cls-11{letter-spacing:-.06em;}.cls-7{stroke-dasharray:0 0 0 0 0 0 1.97 1.97;}.cls-16{letter-spacing:-.03em;}.cls-13{letter-spacing:-.03em;}.cls-14{font-family:SpaceMono-Italic, 'Space Mono';font-style:italic;}.cls-15{letter-spacing:-.01em;}</style></defs><line class="cls-5" x1="506.04" y1="133.19" x2="486.14" y2="133.19"/><polygon points="486.87 130.7 482.55 133.19 486.87 135.69 486.87 130.7"/><line class="cls-5" x1="552.73" y1="154.91" x2="538.66" y2="140.84"/><polygon points="540.94 139.59 536.12 138.3 537.41 143.12 540.94 139.59"/><line class="cls-5" x1="552.73" y1="160.91" x2="538.66" y2="174.98"/><polygon points="537.41 172.7 536.12 177.52 540.94 176.23 537.41 172.7"/><line class="cls-5" x1="610.77" y1="207.47" x2="584.32" y2="174.27"/><polygon points="586.72 173.29 582.08 171.46 582.82 176.39 586.72 173.29"/><line class="cls-5" x1="610.77" y1="214.38" x2="585.12" y2="242.6"/><polygon points="583.77 240.38 582.71 245.25 587.46 243.73 583.77 240.38"/><line class="cls-5" x1="506.04" y1="182.32" x2="486.14" y2="182.32"/><polygon points="486.87 179.83 482.55 182.32 486.87 184.82 486.87 179.83"/><line class="cls-5" x1="506.04" y1="231.45" x2="486.14" y2="231.45"/><polygon points="486.87 228.96 482.55 231.45 486.87 233.94 486.87 228.96"/><line class="cls-5" x1="506.04" y1="280.58" x2="486.14" y2="280.58"/><polygon points="486.87 278.09 482.55 280.58 486.87 283.07 486.87 278.09"/><polyline class="cls-5" points="512.34 142.84 510.34 142.84 510.34 140.84"/><line class="cls-2" x1="510.34" y1="138.56" x2="510.34" y2="126.03"/><polyline class="cls-5" points="510.34 124.89 510.34 122.89 512.34 122.89"/><line class="cls-2" x1="514.62" y1="122.89" x2="527.16" y2="122.89"/><polyline class="cls-5" points="528.3 122.89 530.3 122.89 530.3 124.89"/><line class="cls-2" x1="530.3" y1="127.17" x2="530.3" y2="139.7"/><polyline class="cls-5" points="530.3 140.84 530.3 142.84 528.3 142.84"/><line class="cls-2" x1="526.02" y1="142.84" x2="513.48" y2="142.84"/><polyline class="cls-5" points="560.79 168.45 558.79 168.45 558.79 166.45"/><line class="cls-2" x1="558.79" y1="164.17" x2="558.79" y2="151.64"/><polyline class="cls-5" points="558.79 150.5 558.79 148.5 560.79 148.5"/><line class="cls-2" x1="563.07" y1="148.5" x2="575.6" y2="148.5"/><polyline class="cls-5" points="576.74 148.5 578.74 148.5 578.74 150.5"/><line class="cls-2" x1="578.74" y1="152.78" x2="578.74" y2="165.31"/><polyline class="cls-5" points="578.74 166.45 578.74 168.45 576.74 168.45"/><line class="cls-2" x1="574.46" y1="168.45" x2="561.93" y2="168.45"/><polyline class="cls-5" points="620.77 223.45 618.77 223.45 618.77 221.45"/><line class="cls-2" x1="618.77" y1="219.17" x2="618.77" y2="206.64"/><polyline class="cls-5" points="618.77 205.5 618.77 203.5 620.77 203.5"/><line class="cls-3" x1="622.76" y1="203.5" x2="765.32" y2="203.5"/><polyline class="cls-5" points="766.32 203.5 768.32 203.5 768.32 205.5"/><line class="cls-2" x1="768.32" y1="207.78" x2="768.32" y2="220.31"/><polyline class="cls-5" points="768.32 221.45 768.32 223.45 766.32 223.45"/><line class="cls-3" x1="764.33" y1="223.45" x2="621.76" y2="223.45"/><line class="cls-5" x1="552.73" y1="254.29" x2="538.66" y2="240.23"/><polygon points="540.94 238.98 536.12 237.69 537.41 242.51 540.94 238.98"/><line class="cls-5" x1="552.73" y1="260.3" x2="538.66" y2="274.37"/><polygon points="537.41 272.09 536.12 276.91 540.94 275.62 537.41 272.09"/><polyline class="cls-5" points="560.79 267.84 558.79 267.84 558.79 265.84"/><line class="cls-2" x1="558.79" y1="263.56" x2="558.79" y2="251.03"/><polyline class="cls-5" points="558.79 249.89 558.79 247.89 560.79 247.89"/><line class="cls-2" x1="563.07" y1="247.89" x2="575.6" y2="247.89"/><polyline class="cls-5" points="576.74 247.89 578.74 247.89 578.74 249.89"/><line class="cls-2" x1="578.74" y1="252.17" x2="578.74" y2="264.7"/><polyline class="cls-5" points="578.74 265.84 578.74 267.84 576.74 267.84"/><line class="cls-2" x1="574.46" y1="267.84" x2="561.93" y2="267.84"/><polyline class="cls-5" points="512.34 192.16 510.34 192.16 510.34 190.16"/><line class="cls-2" x1="510.34" y1="187.88" x2="510.34" y2="175.34"/><polyline class="cls-5" points="510.34 174.2 510.34 172.2 512.34 172.2"/><line class="cls-2" x1="514.62" y1="172.2" x2="527.16" y2="172.2"/><polyline class="cls-5" points="528.3 172.2 530.3 172.2 530.3 174.2"/><line class="cls-2" x1="530.3" y1="176.48" x2="530.3" y2="189.02"/><polyline class="cls-5" points="530.3 190.16 530.3 192.16 528.3 192.16"/><line class="cls-2" x1="526.02" y1="192.16" x2="513.48" y2="192.16"/><polyline class="cls-5" points="512.34 241.47 510.34 241.47 510.34 239.47"/><line class="cls-2" x1="510.34" y1="237.2" x2="510.34" y2="224.66"/><polyline class="cls-5" points="510.34 223.52 510.34 221.52 512.34 221.52"/><line class="cls-2" x1="514.62" y1="221.52" x2="527.16" y2="221.52"/><polyline class="cls-5" points="528.3 221.52 530.3 221.52 530.3 223.52"/><line class="cls-2" x1="530.3" y1="225.8" x2="530.3" y2="238.34"/><polyline class="cls-5" points="530.3 239.47 530.3 241.47 528.3 241.47"/><line class="cls-2" x1="526.02" y1="241.47" x2="513.48" y2="241.47"/><polyline class="cls-5" points="512.34 290.79 510.34 290.79 510.34 288.79"/><line class="cls-2" x1="510.34" y1="286.51" x2="510.34" y2="273.98"/><polyline class="cls-5" points="510.34 272.84 510.34 270.84 512.34 270.84"/><line class="cls-2" x1="514.62" y1="270.84" x2="527.16" y2="270.84"/><polyline class="cls-5" points="528.3 270.84 530.3 270.84 530.3 272.84"/><line class="cls-2" x1="530.3" y1="275.12" x2="530.3" y2="287.65"/><polyline class="cls-5" points="530.3 288.79 530.3 290.79 528.3 290.79"/><line class="cls-2" x1="526.02" y1="290.79" x2="513.48" y2="290.79"/><rect class="cls-4" x="142.94" y="95.2" width="326.4" height="220.41"/><g class="cls-12"><text class="cls-14" transform="translate(449.95 66.02)"><tspan x="0" y="0">fixed-size chunk hashes</tspan></text></g><g class="cls-12"><text class="cls-14" transform="translate(617.89 192.15)"><tspan x="0" y="0">root hash</tspan></text></g><g class="cls-12"><text class="cls-10" transform="translate(632.38 219.67)"><tspan x="0" y="0">cidBlob</tspan></text></g><g class="cls-12"><text class="cls-10" transform="translate(168.54 124.96)"><tspan x="0" y="0">&lt;op</tspan></text><text class="cls-15" transform="translate(198.65 124.96)"><tspan x="0" y="0">a</tspan></text><text class="cls-10" transform="translate(207.63 124.96)"><tspan x="0" y="0">que d</tspan></text><text class="cls-13" transform="translate(251.61 124.96)"><tspan x="0" y="0">a</tspan></text><text class="cls-10" transform="translate(260.3 124.96)"><tspan x="0" y="0">t</tspan></text><text class="cls-10" transform="translate(267.61 124.96)"><tspan x="0" y="0">a&gt;</tspan></text><text class="cls-10" transform="translate(168.54 144.16)"><tspan x="0" y="0">.</tspan><tspan class="cls-16" x="4.05" y="0">.</tspan></text><text class="cls-11" transform="translate(176.64 144.16)"><tspan x="0" y="0">.</tspan></text></g><polyline class="cls-6" points="462.65 200.96 462.65 201.96 461.65 201.96"/><line class="cls-1" x1="459.64" y1="201.96" x2="155.2" y2="201.96"/><polyline class="cls-6" points="154.19 201.96 153.19 201.96 153.19 200.96"/><line class="cls-7" x1="153.19" y1="198.99" x2="153.19" y2="105.41"/><polyline class="cls-6" points="153.19 104.42 153.19 103.42 154.19 103.42"/><line class="cls-1" x1="156.2" y1="103.42" x2="460.65" y2="103.42"/><polyline class="cls-6" points="461.65 103.42 462.65 103.42 462.65 104.42"/><line class="cls-7" x1="462.65" y1="106.39" x2="462.65" y2="199.97"/><g class="cls-12"><text class="cls-10" transform="translate(168.54 228.99)"><tspan x="0" y="0">&lt;op</tspan></text><text class="cls-15" transform="translate(198.65 228.99)"><tspan x="0" y="0">a</tspan></text><text class="cls-10" transform="translate(207.63 228.99)"><tspan x="0" y="0">que d</tspan></text><text class="cls-13" transform="translate(251.61 228.99)"><tspan x="0" y="0">a</tspan></text><text class="cls-10" transform="translate(260.3 228.99)"><tspan x="0" y="0">t</tspan></text><text class="cls-10" transform="translate(267.61 228.99)"><tspan x="0" y="0">a co</tspan></text><text class="cls-9" transform="translate(300.38 228.99)"><tspan x="0" y="0">n</tspan></text><text class="cls-10" transform="translate(309.96 228.99)"><tspan x="0" y="0">ti</tspan></text><text class="cls-10" transform="translate(321.24 228.99)"><tspan x="0" y="0">n</tspan></text><text class="cls-10" transform="translate(330.92 228.99)"><tspan x="0" y="0">ued&gt;</tspan></text><text class="cls-10" transform="translate(168.54 248.19)"><tspan x="0" y="0">&lt;p</tspan></text><text class="cls-15" transform="translate(188.76 248.19)"><tspan x="0" y="0">a</tspan></text><text class="cls-10" transform="translate(197.74 248.19)"><tspan x="0" y="0">dding&gt;</tspan></text></g><polyline class="cls-6" points="462.65 304.99 462.65 305.99 461.65 305.99"/><line class="cls-1" x1="459.64" y1="305.99" x2="155.2" y2="305.99"/><polyline class="cls-6" points="154.19 305.99 153.19 305.99 153.19 304.99"/><line class="cls-7" x1="153.19" y1="303.02" x2="153.19" y2="209.44"/><polyline class="cls-6" points="153.19 208.46 153.19 207.46 154.19 207.46"/><line class="cls-1" x1="156.2" y1="207.46" x2="460.65" y2="207.46"/><polyline class="cls-6" points="461.65 207.46 462.65 207.46 462.65 208.46"/><line class="cls-7" x1="462.65" y1="210.43" x2="462.65" y2="304.01"/><path class="cls-5" d="m508.09,99.75s0-9.01,6.43-9.01h38.79c2.12,0,4.5-2.8,4.5-6.31h.14c0,3.5,2.38,6.31,4.5,6.31h38.79c6.43,0,6.43,9.01,6.43,9.01"/><g class="cls-12"><text class="cls-14" transform="translate(35.61 201.83)"><tspan x="0" y="0">binary</tspan></text><text class="cls-14" transform="translate(55.19 221.03)"><tspan x="0" y="0">data</tspan></text></g><path class="cls-5" d="m126.54,307s-9.01,0-9.01-13.24v-79.83c0-4.37-2.8-9.27-6.31-9.27v-.29c3.5,0,6.31-4.9,6.31-9.27v-79.83c0-13.24,9.01-13.24,9.01-13.24"/><text class="cls-8" transform="translate(143.67 44.31)"><tspan x="0" y="0">BLOB</tspan></text></svg>