<?xml version="1.0" encoding="UTF-8"?><svg id="Layer_1" xmlns="http://www.w3.org/2000/svg" viewBox="0 0 800 450"><defs><style>.cls-1{stroke-dasharray:0 0 9.42 9.42;}.cls-1,.cls-2,.cls-3,.cls-4,.cls-5,.cls-6,.cls-7,.cls-8,.cls-9,.cls-10,.cls-11,.cls-12,.cls-13,.cls-14,.cls-15,.cls-16,.cls-17,.cls-18{stroke-miterlimit:10;}.cls-1,.cls-2,.cls-3,.cls-5,.cls-6,.cls-7,.cls-9,.cls-10,.cls-11,.cls-12,.cls-13,.cls-14,.cls-15,.cls-16,.cls-17,.cls-18{fill:none;}.cls-1,.cls-2,.cls-3,.cls-5,.cls-6,.cls-7,.cls-9,.cls-12,.cls-13,.cls-14,.cls-15,.cls-16,.cls-17{stroke:#f2f2f2;}.cls-1,.cls-2,.cls-3,.cls-5,.cls-6,.cls-7,.cls-9,.cls-13,.cls-14,.cls-15,.cls-16,.cls-17{stroke-width:.75px;}.cls-19{fill:#7c7cf7;font-size:16px;letter-spacing:.05em;}.cls-19,.cls-20,.cls-21{font-family:SpaceMono-Regular, 'Space Mono';}.cls-2{stroke-dasharray:0 0 11.34 11.34;}.cls-22,.cls-21{fill:#f2f2f2;}.cls-23{fill:#eaeaea;}.cls-24,.cls-8{fill:#e5e5e5;}.cls-3{stroke-dasharray:0 0 12.5 12.5;}.cls-4{fill:#f7f7f7;stroke-width:2px;}.cls-4,.cls-8,.cls-11,.cls-18{stroke:#000;}.cls-5{stroke-dasharray:0 0 11.05 11.05;}.cls-20,.cls-21{font-size:14px;}.cls-7{stroke-dasharray:0 0 10.61 10.61;}.cls-9{stroke-dasharray:0 0 12.13 12.13;}.cls-10{stroke:#141414;stroke-width:.59px;}.cls-13{stroke-dasharray:0 0 9.16 9.16;}.cls-14{stroke-dasharray:0 0 13.75 13.75;}.cls-15{stroke-dasharray:0 0 6.03 6.03;}.cls-16{stroke-dasharray:0 0 14.12 14.12;}.cls-17{stroke-dasharray:0 0 11.55 11.55;}.cls-18{stroke-width:.98px;}</style></defs><rect class="cls-4" x="294.03" y="107.13" width="190.43" height="235.48"/><rect class="cls-8" x="294.75" y="155.19" width="188.35" height="18.6"/><path class="cls-10" d="m459.86,186.71c0,5.11-7.8,7.28-14.04,11.13-6.24,3.85-6.24-6.02-6.24-11.13s5.93-7.91,10.14-9.26,10.14,4.15,10.14,9.26Z"/><path class="cls-10" d="m459.86,214.85c3.03,4.37-5.31,14.04-10.55,10.19s-12.18-3.4-9.73-10.19c2.45-6.79,5.93-7.91,10.14-9.26s7.11,4.89,10.14,9.26Z"/><path class="cls-10" d="m459.86,330.01c3.03-4.37-5.31-14.04-10.55-10.19s-12.18,3.4-9.73,10.19c2.45,6.79,5.93,7.91,10.14,9.26,4.21,1.35,7.11-4.89,10.14-9.26Z"/><path class="cls-10" d="m459.86,244.44c3.03,4.37-5.31,14.04-10.55,10.19s-12.18-3.4-9.73-10.19c2.45-6.79,1.82-9.78,10.14-9.26,8.32.53,7.11,4.89,10.14,9.26Z"/><path class="cls-10" d="m459.86,272.58c3.03,4.37-5.31,14.04-10.55,10.19s-8.3-4.37-9.73-10.19,1.82-9.78,10.14-9.26,7.11,4.89,10.14,9.26Z"/><path class="cls-10" d="m459.86,299.27c4.47,4.57,5.53,15.58-10.55,10.19-6.17-2.07-8.3-4.37-9.73-10.19s.92-11.68,9.73-7.76c8.81,3.92,6.84,3.96,10.55,7.76Z"/><line class="cls-18" x1="294.03" y1="173.79" x2="484.06" y2="173.79"/><line class="cls-18" x1="294.03" y1="201.97" x2="484.06" y2="201.97"/><line class="cls-18" x1="294.03" y1="230.15" x2="484.06" y2="230.15"/><line class="cls-18" x1="294.03" y1="258.33" x2="484.06" y2="258.33"/><line class="cls-18" x1="294.03" y1="286.51" x2="484.06" y2="286.51"/><line class="cls-18" x1="294.03" y1="314.69" x2="484.06" y2="314.69"/><line class="cls-11" x1="415.97" y1="155.73" x2="415.97" y2="342.87"/><text class="cls-19" transform="translate(300.69 129.6)"><tspan x="0" y="0">DOCUMENT</tspan></text><text class="cls-20" transform="translate(301.08 169.15)"><tspan x="0" y="0">key</tspan></text><text class="cls-20" transform="translate(422.07 169.15)"><tspan x="0" y="0">value</tspan></text><rect class="cls-24" x="298.96" y="180.19" width="103.75" height="14.58" rx="5.89" ry="5.89"/><rect class="cls-24" x="298.96" y="207.73" width="50.62" height="14.58" rx="5.89" ry="5.89"/><rect class="cls-24" x="298.96" y="236.55" width="84.57" height="14.58" rx="5.89" ry="5.89"/><rect class="cls-24" x="298.96" y="265.37" width="93.35" height="14.58" rx="5.89" ry="5.89"/><rect class="cls-24" x="298.96" y="294.19" width="38.8" height="14.58" rx="5.89" ry="5.89"/><rect class="cls-24" x="298.96" y="323.01" width="79.14" height="14.58" rx="5.89" ry="5.89"/><path class="cls-12" d="m102.39,387.04s0,18.55-13.4,18.55v4.64s53.59,0,53.59,0v-4.64c-13.4,0-13.4-18.55-13.4-18.55"/><rect class="cls-12" x="42" y="303.82" width="147.58" height="83.01"/><rect class="cls-12" x="95.45" y="187.12" width="41.67" height="61.5" rx="1.44" ry="1.44"/><circle class="cls-12" cx="116.28" cy="242.56" r="1.78"/><path class="cls-12" d="m68.62,124.88v-61.2c0-.78.63-1.42,1.42-1.42h93.94c.78,0,1.42.63,1.42,1.42v61.2"/><path class="cls-12" d="m62.45,124.39h109.11v1.32c0,1.66-1.35,3.01-3.01,3.01h-103.1c-1.66,0-3.01-1.35-3.01-3.01v-1.32h0Z"/><text class="cls-21" transform="translate(88.4 348.94)"><tspan x="0" y="0">sanjit</tspan></text><text class="cls-21" transform="translate(103.98 220.08)"><tspan x="0" y="0">bob</tspan></text><text class="cls-21" transform="translate(95.92 97.64)"><tspan x="0" y="0">alice</tspan></text><path class="cls-23" d="m700.71,76.73c0,15.21-23.21,21.66-41.78,33.11-18.57,11.45-18.57-17.9-18.57-33.11s-2.15-23.52,10.38-27.54c12.53-4.02,49.96,12.33,49.96,27.54Z"/><path class="cls-23" d="m704.13,226.72c4.92,7.09-8.62,22.78-17.12,16.53-8.51-6.25-19.77-5.51-15.79-16.53,3.98-11.02,9.62-12.83,16.46-15.02,6.84-2.19,11.54,7.94,16.46,15.02Z"/><path class="cls-23" d="m749.81,367.06c19.36-27.89-33.92-89.7-67.41-65.08-33.49,24.61-77.84,21.7-62.16,65.08,15.67,43.39,37.88,50.5,64.79,59.14s45.42-31.25,64.79-59.14Z"/><path class="cls-23" d="m698.91,156.82c13.31,19.17-23.31,61.63-46.32,44.72-23.01-16.91-53.48-14.91-42.71-44.72,10.77-29.81,7.99-42.94,44.52-40.63,36.53,2.31,31.21,21.47,44.52,40.63Z"/><path class="cls-23" d="m671.03,271.18c9.4,13.53-16.46,43.52-32.71,31.58-16.25-11.94-25.74-13.53-30.16-31.58-4.43-18.05,5.64-30.32,31.44-28.7,25.79,1.63,22.04,15.16,31.44,28.7Z"/><line class="cls-6" x1="485.26" y1="186.71" x2="491.26" y2="186.71"/><polyline class="cls-6" points="504.19 186.71 510.19 186.71 510.19 180.71"/><line class="cls-7" x1="510.19" y1="170.09" x2="510.19" y2="90.49"/><polyline class="cls-6" points="510.19 85.19 510.19 79.19 516.19 79.19"/><line class="cls-9" x1="528.32" y1="79.19" x2="619.29" y2="79.19"/><line class="cls-6" x1="625.36" y1="79.19" x2="631.36" y2="79.19"/><polygon class="cls-22" points="630.59 81.8 635.12 79.19 630.59 76.57 630.59 81.8"/><line class="cls-6" x1="485.26" y1="215.82" x2="491.26" y2="215.82"/><line class="cls-13" x1="500.42" y1="215.82" x2="514.17" y2="215.82"/><polyline class="cls-6" points="518.75 215.82 524.75 215.82 524.75 209.82"/><line class="cls-3" x1="524.75" y1="197.32" x2="524.75" y2="178.58"/><polyline class="cls-6" points="524.75 172.33 524.75 166.33 530.75 166.33"/><line class="cls-17" x1="542.29" y1="166.33" x2="582.71" y2="166.33"/><line class="cls-6" x1="588.48" y1="166.33" x2="594.48" y2="166.33"/><polygon class="cls-22" points="593.72 168.95 598.25 166.33 593.72 163.71 593.72 168.95"/><line class="cls-6" x1="484.72" y1="244.93" x2="490.72" y2="244.93"/><line class="cls-1" x1="500.15" y1="244.93" x2="514.28" y2="244.93"/><polyline class="cls-6" points="518.99 244.93 524.99 244.93 524.99 238.93"/><polyline class="cls-6" points="524.99 233.46 524.99 227.46 530.99 227.46"/><line class="cls-5" x1="542.04" y1="227.46" x2="647" y2="227.46"/><line class="cls-6" x1="652.53" y1="227.46" x2="658.53" y2="227.46"/><polygon class="cls-22" points="657.76 230.08 662.29 227.46 657.76 224.84 657.76 230.08"/><line class="cls-6" x1="485.8" y1="272.1" x2="491.8" y2="272.1"/><line class="cls-2" x1="503.14" y1="272.1" x2="588.15" y2="272.1"/><line class="cls-6" x1="593.82" y1="272.1" x2="599.82" y2="272.1"/><polygon class="cls-22" points="599.05 274.72 603.59 272.1 599.05 269.48 599.05 274.72"/><line class="cls-6" x1="484.72" y1="299.27" x2="490.72" y2="299.27"/><line class="cls-14" x1="504.47" y1="299.27" x2="552.59" y2="299.27"/><line class="cls-6" x1="559.46" y1="299.27" x2="565.46" y2="299.27"/><polygon class="cls-22" points="564.7 301.88 569.23 299.27 564.7 296.65 564.7 301.88"/><line class="cls-6" x1="484.72" y1="326.44" x2="490.72" y2="326.44"/><line class="cls-1" x1="500.15" y1="326.44" x2="514.28" y2="326.44"/><polyline class="cls-6" points="518.99 326.44 524.99 326.44 524.99 332.44"/><line class="cls-15" x1="524.99" y1="338.46" x2="524.99" y2="347.5"/><polyline class="cls-6" points="524.99 350.52 524.99 356.52 530.99 356.52"/><line class="cls-16" x1="545.11" y1="356.52" x2="594.52" y2="356.52"/><line class="cls-6" x1="601.58" y1="356.52" x2="607.58" y2="356.52"/><polygon class="cls-22" points="606.82 359.14 611.35 356.52 606.82 353.9 606.82 359.14"/><path class="cls-23" d="m613.46,301.92c7.46,7.63,9.22,25.99-17.61,17-10.29-3.45-13.86-7.29-16.24-17s1.54-19.5,16.24-12.95c14.7,6.54,11.41,6.61,17.61,12.95Z"/><polyline class="cls-12" points="173.59 92.41 252.19 92.41 251.11 189.38 285.87 189.38"/><polygon class="cls-22" points="284.85 192.87 290.89 189.38 284.85 185.89 284.85 192.87"/><polyline class="cls-12" points="251.11 177.73 251.11 272.34 285.87 272.34"/><polygon class="cls-22" points="284.85 275.83 290.89 272.34 284.85 268.85 284.85 275.83"/><polyline class="cls-12" points="196.77 346.79 241.41 346.79 241.41 328.62 284.9 328.62"/><polygon class="cls-22" points="283.88 332.11 289.92 328.62 283.88 325.13 283.88 332.11"/><line class="cls-12" x1="150.25" y1="218.24" x2="286.11" y2="218.24"/><polygon class="cls-22" points="285.09 221.73 291.14 218.24 285.09 214.75 285.09 221.73"/><text class="cls-19" transform="translate(84.48 37.09)"><tspan x="0" y="0">AUTHORS</tspan></text><text class="cls-19" transform="translate(636.3 37.09)"><tspan x="0" y="0">BLOBS</tspan></text><polyline class="cls-12" points="241.41 328.62 241.41 272.1 281.07 272.1"/><polygon class="cls-22" points="280.05 275.59 286.09 272.1 280.05 268.61 280.05 275.59"/></svg>