<?xml version="1.0" encoding="UTF-8"?><svg id="Layer_1" xmlns="http://www.w3.org/2000/svg" viewBox="0 0 80 80"><defs><style>.cls-1{stroke:#fff;}.cls-1,.cls-2{fill:none;stroke-linecap:round;stroke-miterlimit:10;stroke-width:3px;}.cls-2{stroke:#6a69cb;}.cls-3{fill:#6a69cb;}.cls-4{fill:#2a2b2b;}</style></defs><circle class="cls-4" cx="40.48" cy="40.09" r="39.86"/><g><path class="cls-2" d="M20.27,41.19c-.6-.14-1.22-.22-1.85-.22-2.54,0-4.8,1.17-6.29,2.99"/><path class="cls-2" d="M47.67,23.86c-1.76-1.1-3.84-1.73-6.07-1.73-6.34,0-11.48,5.14-11.48,11.48,0,.21,0,.41,.02,.62"/><path class="cls-2" d="M30.14,34.22c-.08,0-.16,0-.24,0-4.49,0-8.3,2.93-9.63,6.97"/></g><line class="cls-1" x1="61.39" y1="20.69" x2="21.1" y2="60.98"/><g><path class="cls-2" d="M59.01,30h2.15c.32,0,.57,.26,.57,.57v33.97c0,.32-.26,.57-.57,.57h-21.57c-.32,0-.57-.26-.57-.57v-13.43"/><circle class="cls-3" cx="50.38" cy="61.98" r="1.2"/></g></svg>