<?xml version="1.0" encoding="UTF-8"?><svg id="Layer_1" xmlns="http://www.w3.org/2000/svg" viewBox="0 0 80 80"><defs><style>.cls-1{stroke:#6a69cb;stroke-width:3px;}.cls-1,.cls-2{stroke-linecap:round;}.cls-1,.cls-2,.cls-3{fill:none;stroke-miterlimit:10;}.cls-4{fill:#6a69cb;}.cls-5{fill:#2a2b2b;}.cls-2{stroke-width:1.25px;}.cls-2,.cls-3{stroke:#fff;}.cls-3{stroke-width:.5px;}</style></defs><circle class="cls-5" cx="40.48" cy="40.09" r="39.86"/><circle class="cls-4" cx="40.36" cy="60.76" r="1.39"/><rect class="cls-1" x="25.59" y="14.73" width="29.89" height="51.48" rx="2.4" ry="2.4"/><g><path class="cls-2" d="M42.51,45.68c-.82-1.4-.81-2.57-.12-3.62s2.22-2.1,3.15-2.69,1.17-2.69,1.4-3.15,1.64-2.57,2.69-2.22,1.52,1.05-.23,5.37,1.05,7.01-5.14,10.16-9.11-5.84-9.11-5.84l-3.01-6.85s-.61-.74,.2-1.56,1.51,.08,1.51,.08l2.93,6.11"/><path class="cls-2" d="M33.78,34.98s-.73-1.79,.09-2.38,1.75-.35,2.34,.82,2.92,6.31,2.92,6.31"/><path class="cls-2" d="M36.2,33.42s-1.29-2.45,.12-3.04,2.1,.35,2.57,1.29,3.04,6.78,3.04,6.78"/><path class="cls-2" d="M38.76,31.31s0-.93,.83-1.29,1.64,.23,2.1,1.17,3.86,8.18,3.86,8.18"/><path class="cls-3" d="M29.17,37.72s0,5.02,3.62,6.43"/><path class="cls-3" d="M32.56,45.55s-3.04,.12-4.32-1.99"/><path class="cls-3" d="M42.63,28.61c1.75,1.05,3.74,3.86,3.15,6.66"/><path class="cls-3" d="M45.43,28.37c1.52,.82,2.1,2.1,2.1,3.62"/></g></svg>